<?xml version="1.0" encoding="utf-8"?>
<!-- Generator: Adobe Illustrator 18.0.0, SVG Export Plug-In . SVG Version: 6.00 Build 0)  -->
<!DOCTYPE svg PUBLIC "-//W3C//DTD SVG 1.1//EN" "http://www.w3.org/Graphics/SVG/1.1/DTD/svg11.dtd">
<svg version="1.1" id="Laag_1" xmlns="http://www.w3.org/2000/svg" xmlns:xlink="http://www.w3.org/1999/xlink" x="0px" y="0px"
	 width="395.2px" height="386.7px" viewBox="0 0 395.2 386.7" enable-background="new 0 0 395.2 386.7" xml:space="preserve">
<g>
	<defs>
		<ellipse id="SVGID_1_" cx="163.7" cy="224.1" rx="155.8" ry="155.6"/>
	</defs>
	<clipPath id="SVGID_2_">
		<use xlink:href="#SVGID_1_"  overflow="visible"/>
	</clipPath>
	<g clip-path="url(#SVGID_2_)">
		<defs>
			<rect id="SVGID_3_" x="-1011.2" y="-1533.6" width="4352.3" height="2034.9"/>
		</defs>
		<clipPath id="SVGID_4_">
			<use xlink:href="#SVGID_3_"  overflow="visible"/>
		</clipPath>
		<rect x="-1.8" y="58.7" clip-path="url(#SVGID_4_)" fill="#CFD4FF" width="331" height="330.7"/>
	</g>
</g>
<g>
	<defs>
		<path id="SVGID_5_" d="M163.7,379.7c51.7,0,97.6-25.2,125.9-64c10.8-14.7,67.5,38.1,72.5,20.1C365.9,322.3,376,208.6,376,194
			C376,108,185.6-66.6,99.5-66.6c-37.6,0-188.9-4.6-219.2,86.5c-39.1,117.4,89.4,350,132.1,370.8c45.3,22.1,36.7-60.7,42.8-54.8
			C83.3,363,121.5,379.7,163.7,379.7z"/>
	</defs>
	<clipPath id="SVGID_6_">
		<use xlink:href="#SVGID_5_"  overflow="visible"/>
	</clipPath>
	<g clip-path="url(#SVGID_6_)">
		<defs>
			<rect id="SVGID_7_" x="-1011.2" y="-1533.6" width="4352.3" height="2034.9"/>
		</defs>
		<clipPath id="SVGID_8_">
			<use xlink:href="#SVGID_7_"  overflow="visible"/>
		</clipPath>
		<g clip-path="url(#SVGID_8_)" enable-background="new    ">
			<g>
				<defs>
					<rect id="SVGID_9_" x="33.5" y="4.2" width="300.2" height="598.4"/>
				</defs>
				<clipPath id="SVGID_10_">
					<use xlink:href="#SVGID_9_"  overflow="visible"/>
				</clipPath>
				<g clip-path="url(#SVGID_10_)">
					<defs>
						<path id="SVGID_11_" d="M124.1,70.8c-7.1-8.3-11.9-18.5-11.1-30c2.3-33,48.3-25.7,57.2-9.1c8.9,16.6,7.9,58.9-3.7,61.8
							c-4.6,1.2-14.4-1.7-24.4-7.7l6.3,44.3h-37L124.1,70.8z"/>
					</defs>
					<clipPath id="SVGID_12_">
						<use xlink:href="#SVGID_11_"  overflow="visible"/>
					</clipPath>
					<g clip-path="url(#SVGID_12_)">
						<defs>
							<rect id="SVGID_13_" x="6.2" y="6.2" width="370.3" height="374.2"/>
						</defs>
						<clipPath id="SVGID_14_">
							<use xlink:href="#SVGID_13_"  overflow="visible"/>
						</clipPath>
						<rect x="101.6" y="7.9" clip-path="url(#SVGID_14_)" fill="#717DB0" width="84.3" height="132"/>
					</g>
				</g>
				<g clip-path="url(#SVGID_10_)">
					<defs>
						<path id="SVGID_15_" d="M121.2,78.2c-4.6-20.6-17.9-34.7-15.9-44c1.3-6.2,4.9-10,10.8-11.5c3-12.2,12.8-17.4,29.2-15.6
							c24.7,2.7,39.7,13,33.2,35.5c-6,0-13.2-2.2-23.2,1.5c-3.2,1.2-5.4,4.8-6.8,10.9h-4.5c-4.4-7.2-8.7-9.9-12.9-8
							c-4.3,1.9-5.2,6.6-2.9,14l-2.2,17H121.2z"/>
					</defs>
					<clipPath id="SVGID_16_">
						<use xlink:href="#SVGID_15_"  overflow="visible"/>
					</clipPath>
					<g clip-path="url(#SVGID_16_)">
						<defs>
							<rect id="SVGID_17_" x="6.2" y="6.2" width="370.3" height="374.2"/>
						</defs>
						<clipPath id="SVGID_18_">
							<use xlink:href="#SVGID_17_"  overflow="visible"/>
						</clipPath>
						<rect x="95.4" y="-2.9" clip-path="url(#SVGID_18_)" fill="#7397FF" width="94.4" height="90.8"/>
					</g>
				</g>
				<g clip-path="url(#SVGID_10_)">
					<defs>
						<polygon id="SVGID_19_" points="99,258 155.5,452.5 182,598.5 208.7,598.5 182.1,258 						"/>
					</defs>
					<clipPath id="SVGID_20_">
						<use xlink:href="#SVGID_19_"  overflow="visible"/>
					</clipPath>
					<g clip-path="url(#SVGID_20_)">
						<defs>
							<rect id="SVGID_21_" x="6.2" y="6.2" width="370.3" height="374.2"/>
						</defs>
						<clipPath id="SVGID_22_">
							<use xlink:href="#SVGID_21_"  overflow="visible"/>
						</clipPath>
						<rect x="89.2" y="248.2" clip-path="url(#SVGID_22_)" fill="#997659" width="129.2" height="360"/>
					</g>
				</g>
				<g clip-path="url(#SVGID_10_)">
					<defs>
						<path id="SVGID_23_" d="M73.6,258c3.9,101,2.4,156.1,1.5,165.3c-0.9,9.2-5.9,70.7-40,178.3h27.7
							c45.2-103.2,61-164.7,66.2-178.3c5.2-13.6,20.5-68.7,42.8-165.3H73.6z"/>
					</defs>
					<clipPath id="SVGID_24_">
						<use xlink:href="#SVGID_23_"  overflow="visible"/>
					</clipPath>
					<g clip-path="url(#SVGID_24_)">
						<defs>
							<rect id="SVGID_25_" x="6.2" y="6.2" width="370.3" height="374.2"/>
						</defs>
						<clipPath id="SVGID_26_">
							<use xlink:href="#SVGID_25_"  overflow="visible"/>
						</clipPath>
						<rect x="25.3" y="248.2" clip-path="url(#SVGID_26_)" fill="#B28B67" width="156.2" height="363.1"/>
					</g>
				</g>
				<g clip-path="url(#SVGID_10_)">
					<defs>
						<path id="SVGID_27_" d="M97.8,258c14.7,66.9,40.1,173.8,76.2,320.5h39c2.9-150.6-9.4-249.7-30.6-320.5H97.8z"/>
					</defs>
					<clipPath id="SVGID_28_">
						<use xlink:href="#SVGID_27_"  overflow="visible"/>
					</clipPath>
					<g clip-path="url(#SVGID_28_)">
						<defs>
							<rect id="SVGID_29_" x="6.2" y="6.2" width="370.3" height="374.2"/>
						</defs>
						<clipPath id="SVGID_30_">
							<use xlink:href="#SVGID_29_"  overflow="visible"/>
						</clipPath>
						<rect x="88" y="248.2" clip-path="url(#SVGID_30_)" fill="#5A80F3" width="135.2" height="340"/>
					</g>
				</g>
				<g clip-path="url(#SVGID_10_)">
					<defs>
						<path id="SVGID_31_" d="M73.4,258c3.9,101-6.1,200.6-37.1,322.1h41.6c45.3-101.7,77.7-200.7,99.9-322.1H73.4z"/>
					</defs>
					<clipPath id="SVGID_32_">
						<use xlink:href="#SVGID_31_"  overflow="visible"/>
					</clipPath>
					<g clip-path="url(#SVGID_32_)">
						<defs>
							<rect id="SVGID_33_" x="6.2" y="6.2" width="370.3" height="374.2"/>
						</defs>
						<clipPath id="SVGID_34_">
							<use xlink:href="#SVGID_33_"  overflow="visible"/>
						</clipPath>
						<rect x="26.5" y="248.2" clip-path="url(#SVGID_34_)" fill="#7397FF" width="161" height="341.5"/>
					</g>
				</g>
				<g clip-path="url(#SVGID_10_)">
					<defs>
						<path id="SVGID_35_" d="M264,186.7l23.5-12.9c3.3-12.5,7.2-18.9,11.8-18.9c3.5-1.6-2.6,14.2,4.1,12.8c6.7-1.4,23-13.5,25.8-11
							c4.2,3.6,0.5,14.8-3.9,20.4c-8.2,10.4-14.9,13.9-31.6,18.6c-8.7,2.4-18.2,7.3-28.3,14.6L264,186.7z M180.2,162l53.5-29.3
							c8.9-10.6,17.7-18.8,26.3-24.6c2.6-1.1,7.3-1.8,2.9,5.9c-4.3,7.7-8.5,15.9-6.3,18.3c2.2,2.4,7.7-0.9,10.3,3
							c1.7,2.6-7.6,6.7-28.1,12.4l-38.9,35.6L180.2,162z"/>
					</defs>
					<clipPath id="SVGID_36_">
						<use xlink:href="#SVGID_35_"  overflow="visible"/>
					</clipPath>
					<g clip-path="url(#SVGID_36_)">
						<defs>
							<rect id="SVGID_37_" x="6.2" y="6.2" width="370.3" height="374.2"/>
						</defs>
						<clipPath id="SVGID_38_">
							<use xlink:href="#SVGID_37_"  overflow="visible"/>
						</clipPath>
						<rect x="170.4" y="97.7" clip-path="url(#SVGID_38_)" fill="#717DB0" width="170.3" height="122.3"/>
					</g>
				</g>
				<g clip-path="url(#SVGID_10_)">
					<defs>
						<path id="SVGID_39_" d="M154.1,155.5c18.7-0.2,43.8-4.2,70.4-21.1l10.5,23.3c-18.4,18.2-44.3,33.2-66.9,32.6
							C150.3,189.8,141.2,168.3,154.1,155.5z"/>
					</defs>
					<clipPath id="SVGID_40_">
						<use xlink:href="#SVGID_39_"  overflow="visible"/>
					</clipPath>
					<g clip-path="url(#SVGID_40_)">
						<defs>
							<rect id="SVGID_41_" x="6.2" y="6.2" width="370.3" height="374.2"/>
						</defs>
						<clipPath id="SVGID_42_">
							<use xlink:href="#SVGID_41_"  overflow="visible"/>
						</clipPath>
						
							<rect x="137.6" y="130.2" transform="matrix(-0.9877 0.1564 -0.1564 -0.9877 405.9494 295.2475)" clip-path="url(#SVGID_42_)" fill="#69A1AC" width="107.5" height="66.8"/>
					</g>
				</g>
				<g clip-path="url(#SVGID_10_)">
					<defs>
						<path id="SVGID_43_" d="M179.3,192.9c19.9,5,53.3-0.9,100.1-17.5c11.6,24,17,41.1,16.1,51.4c-40.2,21-74.6,30.3-103,30.9
							c0.9,16.8-1.1,32.8-8,47.5c-14.2,30.1-97,2.2-124.9,7.7C42.2,256.2,75.9,233.2,75.9,197c0-39.7,31.9-100.8,36.6-100.8h42.8
							C157.7,126.5,169.6,159.9,179.3,192.9z"/>
					</defs>
					<clipPath id="SVGID_44_">
						<use xlink:href="#SVGID_43_"  overflow="visible"/>
					</clipPath>
					<g clip-path="url(#SVGID_44_)">
						<defs>
							<rect id="SVGID_45_" x="6.2" y="6.2" width="370.3" height="374.2"/>
						</defs>
						<clipPath id="SVGID_46_">
							<use xlink:href="#SVGID_45_"  overflow="visible"/>
						</clipPath>
						<rect x="44.9" y="86.4" clip-path="url(#SVGID_46_)" fill="#89C5CC" width="260.6" height="242.6"/>
					</g>
				</g>
			</g>
		</g>
	</g>
</g>
<g>
	<defs>
		<path id="SVGID_47_" d="M281.2,177.2l6-3.2c1.2-2.7,4.1-4.1,8.7-4.2c3.5-1.6,0.5-0.5,7.2-1.9c6.7-1.4,23-13.5,25.8-11
			c4.2,3.6,0.5,14.8-3.9,20.4c-8.2,10.4-14.9,13.9-31.6,18.6c-8.7,2.4-10.4,2.8-5.1,1.2L281.2,177.2z M226.4,136.8l7-4
			c8.9-10.6,17.7-18.8,26.3-24.6c2.6-1.1,7.3-1.8,2.9,5.9c-4.3,7.7-8.5,15.9-6.3,18.3c2.2,2.4,7.7-0.9,10.3,3
			c1.7,2.6-7.6,6.7-28.1,12.4l-5.1,4.4L226.4,136.8z"/>
	</defs>
	<clipPath id="SVGID_48_">
		<use xlink:href="#SVGID_47_"  overflow="visible"/>
	</clipPath>
	<g clip-path="url(#SVGID_48_)">
		<defs>
			<rect id="SVGID_49_" x="-1011.2" y="-1533.6" width="4352.3" height="2034.9"/>
		</defs>
		<clipPath id="SVGID_50_">
			<use xlink:href="#SVGID_49_"  overflow="visible"/>
		</clipPath>
		<rect x="216.7" y="97.8" clip-path="url(#SVGID_50_)" fill="#717DB0" width="123.8" height="109.9"/>
	</g>
</g>
<g>
	<defs>
		<rect id="SVGID_51_" x="-1011.2" y="-1533.6" width="4352.3" height="2034.9"/>
	</defs>
	<clipPath id="SVGID_52_">
		<use xlink:href="#SVGID_51_"  overflow="visible"/>
	</clipPath>
	
		<path clip-path="url(#SVGID_52_)" fill="none" stroke="#7397FF" stroke-width="11.6946" stroke-linecap="round" stroke-linejoin="round" stroke-miterlimit="10" d="
		M336.5,66.8L330,47.2c-1.2-3.5-4.4-5.9-8.1-5.9h-22.5c-3.6,0-6.8,2.2-8,5.6l-39.1,103.6c-1,2.7-0.6,5.6,1,8
		c1.6,2.3,4.2,3.7,7.1,3.7h95.9c2.8,0,5.4-1.3,7-3.6c1.6-2.3,2.1-5.1,1.2-7.8l-16.2-48.9"/>
	
		<line clip-path="url(#SVGID_52_)" fill="none" stroke="#7397FF" stroke-width="11.6946" stroke-linecap="round" stroke-linejoin="round" stroke-miterlimit="10" x1="261.5" y1="129" x2="357" y2="129"/>
	
		<line clip-path="url(#SVGID_52_)" fill="none" stroke="#7397FF" stroke-width="11.6946" stroke-linecap="round" stroke-linejoin="round" stroke-miterlimit="10" x1="288.8" y1="58.8" x2="300.5" y2="58.8"/>
	
		<line clip-path="url(#SVGID_52_)" fill="none" stroke="#7397FF" stroke-width="11.6946" stroke-linecap="round" stroke-linejoin="round" stroke-miterlimit="10" x1="281" y1="76.4" x2="300.5" y2="76.4"/>
	
		<line clip-path="url(#SVGID_52_)" fill="none" stroke="#7397FF" stroke-width="11.6946" stroke-linecap="round" stroke-linejoin="round" stroke-miterlimit="10" x1="275.2" y1="93.9" x2="300.5" y2="93.9"/>
	
		<line clip-path="url(#SVGID_52_)" fill="none" stroke="#7397FF" stroke-width="11.6946" stroke-linecap="round" stroke-linejoin="round" stroke-miterlimit="10" x1="267.4" y1="111.4" x2="298.5" y2="111.4"/>
	
		<circle clip-path="url(#SVGID_52_)" fill="none" stroke="#7397FF" stroke-width="11.6946" stroke-linecap="round" stroke-linejoin="round" stroke-miterlimit="10" cx="369.7" cy="53.9" r="12.7"/>
	
		<line clip-path="url(#SVGID_52_)" fill="none" stroke="#7397FF" stroke-width="11.6946" stroke-linecap="round" stroke-linejoin="round" stroke-miterlimit="10" x1="359" y1="64.7" x2="308.3" y2="129"/>
</g>
<g>
	<defs>
		<path id="SVGID_53_" d="M281.2,177.2l6-3.2c1.2-2.7,4.1-4.1,8.7-4.2c3.5-1.6,0.5-0.5,7.2-1.9c6.7-1.4,23-13.5,25.8-11
			c4.2,3.6,0.5,14.8-3.9,20.4c-8.2,10.4-14.9,13.9-31.6,18.6c-8.7,2.4-10.4,2.8-5.1,1.2L281.2,177.2z M226.4,136.8l7-4
			c8.9-10.6,6.3-8,14.9-13.9c2.6-1.1,2.6,3.3,2.4,7.5c-0.2,4.2,3.4,3.5,5.6,5.9c2.2,2.4,7.7-0.9,10.3,3c1.7,2.6-7.6,6.7-28.1,12.4
			l-5.1,4.4L226.4,136.8z"/>
	</defs>
	<clipPath id="SVGID_54_">
		<use xlink:href="#SVGID_53_"  overflow="visible"/>
	</clipPath>
	<g clip-path="url(#SVGID_54_)">
		<defs>
			<rect id="SVGID_55_" x="-1011.2" y="-1533.6" width="4352.3" height="2034.9"/>
		</defs>
		<clipPath id="SVGID_56_">
			<use xlink:href="#SVGID_55_"  overflow="visible"/>
		</clipPath>
		<rect x="216.7" y="109" clip-path="url(#SVGID_56_)" fill="#717DB0" width="123.8" height="98.7"/>
	</g>
</g>
</svg>
