<?xml version="1.0" encoding="utf-8"?>
<!-- Generator: Adobe Illustrator 18.0.0, SVG Export Plug-In . SVG Version: 6.00 Build 0)  -->
<!DOCTYPE svg PUBLIC "-//W3C//DTD SVG 1.1//EN" "http://www.w3.org/Graphics/SVG/1.1/DTD/svg11.dtd">
<svg version="1.1" id="Laag_1" xmlns="http://www.w3.org/2000/svg" xmlns:xlink="http://www.w3.org/1999/xlink" x="0px" y="0px"
	 width="400px" height="400px" viewBox="0 0 400 400" enable-background="new 0 0 400 400" xml:space="preserve">
<g>
	<path fill="#DFE3FE" d="M181,67.9c4,0.2,7.9,0.8,11.8,1.3c5.2,0.7,10.3,1.8,15.4,3c5.5,1.3,11,3.1,16.3,5
		c6.9,2.5,13.6,5.4,20.1,8.9c9.1,4.8,17.7,10.2,25.7,16.7c1.6,1.3,3.4,2.5,4.9,4c0.3,0.3,0.8,0.6,1.3,0.6c-0.4,0.8-0.6,1.7-1.3,2.3
		c-0.4-0.7-1-0.9-1.7-0.9c-1.4,0-2.6,0.3-3.8,1.1c-8.4,5.8-15.8,12.7-22.6,20.3c-2.8,3.1-5.4,6.5-9.5,8.1c-1.2,0.5-2.3,1.3-3.4,1.9
		c-0.6-0.3-0.6-0.9-0.8-1.4c-0.4-1-0.7-1.3-1.8-0.6c-8.9,5.6-18.2,10.1-28.1,13.7c-10,3.6-20.3,5.9-30.8,7.1
		c-0.5-0.3-0.5-0.9-0.7-1.4c-2-6.9-3.9-13.8-5.7-20.7c-2-8-3.8-16-5.1-24.1c-0.8-4.6-1.4-9.2-1.8-13.9c-0.1-2-0.2-2.1-2.2-2.1
		c-3.5,0-7.1,0-10.6,0c-0.4-3.5-1.1-7-1.3-10.7c0.4,0.2,0.6,0.2,0.8,0.3c6.5,3.7,13.3,6.8,20.8,7.9c3,0.4,5.7-0.2,7.8-2.6
		c2.1-2.5,3.2-5.4,4.1-8.5C180.1,78.2,180.6,73,181,67.9z"/>
	<path fill="#7397FE" d="M71.4,367.1c0.2-1.8,0.2-3.7,0.3-5.6c0.3-3.7,0.2-7.4,0.4-11.2c0.4-7.9,0.6-15.7,0.6-23.6
		c1.5,0,3-0.1,4.5,0.1c4.3,0.4,8.6,0.9,12.9,1.4c4.2,0.5,8.4,1,12.6,1.5c4.1,0.5,8.2,1.1,12.3,1.6c4.6,0.5,9.3,1.1,13.9,1.5
		c5.6,0.5,11.2,1.1,16.8,1.1c0.6,0,1.2,0,1.7,0.1c4.1,0.6,8.2-0.1,12.3-0.2c3.4-0.1,6.8-0.8,10.2-1.3c-1.5,7.4-3.3,14.8-5.1,22.2
		c-3.5,14.4-7.2,28.8-11,43.1c-18.4-1.7-36.2-6.1-53.1-13.7c-9.8-4.4-19.2-9.6-28-15.8C72.3,367.9,71.8,367.6,71.4,367.1z"/>
	<path fill="#DBDFFE" d="M332.1,210.6c-0.9-5.8-1.9-11.5-3.2-17.1c-7.2,4.7-15.4,7.1-23.6,9.4c-1.3,0.4-2.6,0.8-3.8,1.2
		c-0.1,1,0.4,1.7,0.7,2.6c2.5,7.2,4.9,14.4,5.8,22c0.2,1.9,0.6,3.9,0.2,5.9c-0.2,0.9-0.5,1.4-1.2,1.7c-6.4,3.2-12.8,6.4-19.3,9.3
		c-6.3,2.8-12.7,5.5-19.2,8c-5.6,2.1-11.2,4.1-16.9,5.8c-0.6,0.2-1.3,0.4-1.9,0.6c0,0,0,0,0,0c-7.7,2.1-15.4,4.1-23.2,5.6
		c-5.1,0.9-10.2,1.6-15.4,2.2c-3.8,0.4-7.5,0.4-11.3,0.8c-0.8,0.1-1.1,0.3-1.1,1.1c0.1,1.8,0.2,3.5,0.2,5.3c0,4.5-0.2,9.1-0.6,13.6
		c-0.4,4.2-1.3,8.4-1.9,12.6c1.4,5.4,2.6,11,3.7,16.5c2.3,10.6,4.2,21.2,6,31.8c1.3,7.9,2.4,15.9,3.6,23.8
		c0.8,5.6,1.5,11.3,2.2,16.9c0.1,0.8,0.1,1.5,0.1,2.3c10.3-2.7,20.1-6.5,29.6-11.2c9.9-4.9,19.3-10.8,28-17.6
		c6.6-5.2,12.9-10.8,18.7-16.9c4.8-5.2,9.4-10.6,13.6-16.3c2.1-2.9,4.4-5.8,6.1-9c0.3-0.4,0.6-0.7,0.9-1.1
		c4.1-6.6,7.8-13.5,10.9-20.7c3.6-8.1,6.4-16.5,8.7-25c1.9-7.2,3.2-14.4,4.1-21.8c0.5-4,0.9-8,1-12
		C333.6,230.6,333.6,220.6,332.1,210.6z M249.6,260.6c0,0.4,0.1,0.8,0.4,1.2C249.7,261.4,249.6,261.1,249.6,260.6z"/>
	<path fill="#7397FE" d="M275.1,109.6c0.7-0.6,0.9-1.5,1.3-2.3c6.6-13.5,13.3-27,19.9-40.5c4.7-9.6,9.4-19.2,14.1-28.8
		c2.4-5,6.3-8.3,11.7-9.6c7.6-1.7,15.2,1.9,18.8,8.9c5.2,10.5,10.4,21.1,15.5,31.6c9.5,19.4,19.1,38.8,28.6,58.2
		c3.9,7.9,7.8,15.8,11.6,23.8c3.9,8,0.7,17.4-7.6,21c-2.3,1-4.7,1.2-7.2,1.3c-11.8,0-23.7,0-35.5,0c-0.6,0-1.2,0-1.7,0
		c-0.1-1.4,0.6-2.7,0.7-4.1c0.3-3,0.5-6.1-2.2-8.3c0-0.1,0-0.2,0-0.2c13.2,0,26.4,0,39.6,0c2.5,0,3.7-1.9,2.7-4.2
		c-0.1-0.2-0.2-0.3-0.3-0.5c-5.8-11.9-11.6-23.8-17.5-35.6c-9.1-18.5-18.1-36.9-27.2-55.4c-3.5-7.2-7.1-14.4-10.6-21.5
		c-1.1-2.1-2.6-3.1-4.7-2.8c-1.9,0.2-3,1.5-3.8,3.1c-8.8,18-17.6,35.9-26.4,53.8c-3.1,6.3-6.2,12.7-9.3,19
		c-3.2,6.6-6.5,13.1-9.7,19.7c-0.1,0.2-0.1,0.4-0.2,0.6c-2.3-0.5-4.7-0.6-7.1-0.6c-2.2,0-3.4-1.4-3-3.7c0.2-0.9,0.4-1.9,0.7-2.8
		c1.4-4.4,3.7-8.4,5.9-12.5C273.8,114.9,275.3,112.6,275.1,109.6z"/>
	<path fill="#5A80F2" d="M153.8,397.8c3.9-14.3,7.6-28.7,11-43.1c1.8-7.4,3.6-14.7,5.1-22.2c2.2-0.6,4.4-1.2,6.6-2
		c5.2-1.9,9.7-4.9,12.6-9.7c2.1-3.5,3.5-7.3,4.7-11.2c0.9-2.8,1.7-5.7,2.6-8.6c1.4,5.4,2.6,11,3.7,16.5c2.3,10.6,4.2,21.2,6,31.8
		c1.3,7.9,2.4,15.9,3.6,23.8c0.8,5.6,1.5,11.3,2.2,16.9c0.1,0.8,0.1,1.5,0.1,2.3c-7.4,2.1-14.9,3.5-22.5,4.6
		c-7.9,1.1-15.8,1.5-23.8,1.4C161.8,398.2,157.8,398.2,153.8,397.8z"/>
	<path fill="#7397FE" d="M121.8,73.9c-1.4-5.4-3.6-10.5-5.9-15.6c-2.8-6.1-6.1-12-8.6-18.2c-2.4-5.9-2-11.4,2-16.5
		c1.8-2.3,4.2-3.8,7-4.6c0.8-0.3,1.3-0.7,1.5-1.5c2.5-9.1,8.8-13.9,17.8-15.3c9.3-1.4,18.3,0.2,27.3,2.6c5.7,1.5,11,3.9,15.4,8
		c4,3.6,6.3,8.1,6.9,13.5c0.5,3.8,0,7.5-0.9,11.3c-0.5,2.4-1,2.7-3.4,2.2c-0.7-0.2-1.4-0.2-2.1-0.2c-2.8-0.3-5.7-0.4-8.5-0.4
		c-3.7,0.1-7.3,0.9-10.8,2.1c-1.6,0.5-2.8,1.5-3.9,2.8c-1.5,1.9-2.3,4.1-3,6.3c-0.9,2.7-0.9,2.6-3.7,2.7c-1.3,0.1-2.1-0.4-2.8-1.5
		c-1.2-2.1-2.8-3.8-4.5-5.4c-4.5-4.2-11.1-2.4-12.4,3.5c-0.6,2.6-0.2,5.3,0.6,7.9c0.3,1,0.5,1.9,0.4,3c-0.7,5-1.3,10-2,15
		c-0.2,1.3-0.5,2.2-2.1,1.9c-0.6-0.1-1.3,0-2,0c-1.1,0.2-1.5-0.4-1.7-1.3C122.3,75.5,122,74.7,121.8,73.9z"/>
	<path fill="#717DAF" d="M124.1,77.7c0.7,0,1.4-0.1,2,0c1.6,0.3,1.9-0.6,2.1-1.9c0.6-5,1.3-10,2-15c0.1-1-0.1-2-0.4-3
		c-0.7-2.6-1.1-5.3-0.6-7.9c1.3-5.9,7.9-7.7,12.4-3.5c1.7,1.6,3.4,3.3,4.5,5.4c0.6,1.1,1.4,1.6,2.8,1.5c2.9-0.1,2.9,0,3.7-2.7
		c0.7-2.2,1.5-4.4,3-6.3c1-1.3,2.3-2.3,3.9-2.8c3.5-1.2,7.1-1.9,10.8-2.1c2.9-0.1,5.7,0,8.5,0.4c1.9,9.3,2.6,18.7,2.1,28.2
		c-0.4,5.2-1,10.3-2.4,15.3c-0.9,3-2,6-4.1,8.5c-2.1,2.4-4.8,3-7.8,2.6c-7.5-1.1-14.3-4.2-20.8-7.9c-0.2-0.1-0.3-0.1-0.8-0.3
		c0.2,3.7,0.9,7.2,1.3,10.7c-8.8,0-17.6,0-26.4,0C121.5,90.4,122.8,84,124.1,77.7z"/>
	<path fill="#D7DCFE" d="M122.5,76.4c-0.2-0.8-0.4-1.6-0.6-2.4c-4.4,1.1-8.7,2.7-12.9,4.3c-10.5,3.9-20.5,9-29.9,15
		c-6.2,3.9-12.1,8.2-17.7,12.9c-2.5,2.1-5.1,4.1-7.1,6.6c-0.6,0.3-1.1,0.7-1.6,1.2c-5.2,5.1-10,10.5-14.5,16.2
		c-6.5,8.1-12.1,16.8-16.9,26c-4.2,8.1-7.7,16.5-10.6,25.1c-2.8,9.2-5.1,18.5-6.4,28.1c-0.8,5.5-1.3,11.1-1.6,16.7
		c-0.2,5.1-0.2,10.2,0.1,15.4c0.3,5.7,0.9,11.3,1.8,16.9c1.2,8,3,15.8,5.4,23.4c3.9,12.7,9.3,24.7,16.2,36.1
		c6.1,10,13,19.4,21.1,27.9c4.8,5.1,9.8,10,15.3,14.4c3,2.4,5.8,4.9,9.2,6.9c0.2-1.8,0.2-3.7,0.3-5.6c0.3-3.7,0.2-7.4,0.4-11.2
		c0.4-7.9,0.6-15.7,0.6-23.6c-0.4-0.4-1-0.3-1.5-0.3c-4.2,0-8.3-0.2-12.5,0.5c-0.9,0.2-1.5-0.1-1.8-1.2c-1.9-6.6-3.4-13.3-4.2-20.2
		c-0.4-4.1-0.9-8.2-0.8-12.3c0.2-9,1.5-17.8,4-26.4c2.9-9.8,6.8-19.3,10.7-28.8c0.3-0.6,0.5-1.2,0.6-1.9c-0.6-0.1-1.1-0.5-1.5-0.9
		c-0.2-0.2-0.4-0.4-0.6-0.6c0.2,0.2,0.4,0.4,0.6,0.6c0.4,0.4,0.9,0.7,1.5,0.9c3.1-7.1,5.3-14.4,6.6-22c0.7-4.3,0.8-8.6,0.9-13
		c0.2-5.9,1-11.8,2.1-17.6c2.1-11,5.3-21.6,8.9-32.2c1-2.8,2-5.7,3.1-8.5c-0.3,0.1-0.5,0.1-0.7,0.1c0.2,0,0.5,0,0.7-0.1
		c1.7-4,3.3-8,5-12c0.9-2.2,1.9-4.5,3-6.7c2.8-5.7,5.5-11.6,8.8-17c1.9-3.2,3.9-6.5,6.4-9.3c0.7-0.8,1.5-1.3,2.6-1.3
		c1.9,0,3.7,0,5.6,0c1.3-6.3,2.7-12.7,4-19C123.1,77.9,122.6,77.3,122.5,76.4z"/>
	<path fill="#717DAF" d="M343.3,160.9c2.7,2.2,2.5,5.3,2.2,8.3c-0.1,1.4-0.8,2.7-0.7,4.1c-2.1,7-6.7,12.4-12,17.2
		c-1.2,1.1-2.5,2-3.8,3c-7.2,4.7-15.4,7.1-23.6,9.4c-1.3,0.4-2.6,0.8-3.8,1.2c-1,0.2-1.2-0.5-1.4-1.2c-1.5-4.1-2.8-8.2-4.5-12.2
		c-1.1-2.4-2.2-4.9-3.3-7.3c0.5-0.3,1-0.7,1.6-0.9c4.4-1.5,7-4.5,7.5-9.2c3.1,0,6.2-0.1,9.3,0c4.2,0.2,7.9-0.9,11.6-2.7
		c6.4-3.2,12.4-7.3,19.2-9.7C342.1,160.9,342.7,160.9,343.3,160.9z"/>
	<path fill="#89C4CB" d="M292.3,183.4c1.1,2.4,2.2,4.9,3.3,7.3c1.8,4,3,8.1,4.5,12.2c0.3,0.7,0.4,1.4,1.4,1.2
		c-0.1,1,0.4,1.7,0.7,2.6c2.5,7.2,4.9,14.4,5.8,22c0.2,1.9,0.6,3.9,0.2,5.9c-0.2,0.9-0.5,1.4-1.2,1.7c-6.4,3.2-12.8,6.4-19.3,9.3
		c-6.3,2.8-12.7,5.5-19.2,8c-5.6,2.1-11.2,4.1-16.9,5.8c-0.6,0.2-1.3,0.4-1.9,0.6c-7.7,2.1-15.4,4.1-23.2,5.6
		c-5.1,0.9-10.2,1.6-15.4,2.2c-3.8,0.4-7.5,0.4-11.3,0.8c-0.8,0.1-1.1,0.3-1.1,1.1c0.1,1.8,0.2,3.5,0.2,5.3c0,4.5-0.2,9.1-0.6,13.6
		c-0.4,4.2-1.3,8.4-1.9,12.6c-0.9,2.9-1.7,5.7-2.6,8.6c-1.2,3.9-2.6,7.7-4.7,11.2c-2.9,4.8-7.4,7.8-12.6,9.7c-2.2,0.8-4.4,1.3-6.6,2
		c-3.4,0.5-6.8,1.2-10.2,1.3c-4.1,0.1-8.2,0.8-12.3,0.2c-0.6-0.1-1.1-0.1-1.7-0.1c-5.6,0-11.2-0.6-16.8-1.1c-4.7-0.4-9.3-1-13.9-1.5
		c-4.1-0.5-8.2-1.1-12.3-1.6c-4.2-0.5-8.4-1-12.6-1.5c-4.3-0.5-8.6-1-12.9-1.4c-1.5-0.1-3-0.1-4.5-0.1c-0.4-0.4-1-0.3-1.5-0.3
		c-4.2,0-8.3-0.2-12.5,0.5c-0.9,0.2-1.5-0.1-1.8-1.2c-1.9-6.6-3.4-13.3-4.2-20.2c-0.4-4.1-0.9-8.2-0.8-12.3c0.2-9,1.5-17.8,4-26.4
		c2.9-9.8,6.8-19.3,10.7-28.8c0.3-0.6,0.5-1.2,0.6-1.9c3.1-7.1,5.3-14.4,6.6-22c0.7-4.3,0.8-8.6,0.9-13c0.2-5.9,1-11.8,2.1-17.6
		c2.1-11,5.3-21.6,8.9-32.2c1-2.8,2-5.7,3.1-8.5c1.7-4,3.3-8,5-12c0.9-2.2,1.9-4.5,3-6.7c2.8-5.7,5.5-11.6,8.8-17
		c1.9-3.2,3.9-6.5,6.4-9.3c0.7-0.8,1.5-1.3,2.6-1.3c1.9,0,3.7,0,5.6,0c8.8,0,17.6,0,26.4,0c3.5,0,7.1,0,10.6,0c1.9,0,2,0.2,2.2,2.1
		c0.3,4.7,1,9.3,1.8,13.9c1.3,8.1,3.1,16.1,5.1,24.1c1.8,6.9,3.7,13.8,5.7,20.7c0.1,0.5,0.2,1,0.7,1.4c0,0.5,0,0.9,0.1,1.4
		c1,3.1,1.9,6.2,2.8,9.3c2.4,8,4.9,16,7.3,24c0.3,0.9,0.3,1.8,1,2.5c-0.1,2.7,0.6,3.5,3,4.1c3.7,0.8,7.5,1.1,11.2,1.3
		c6.9,0.3,13.8-0.3,20.6-1.2c8.2-1.1,16.3-2.7,24.3-4.6c3.4-0.8,6.9-1.6,10.2-2.7c6.5-1.6,12.9-3.6,19.3-5.7
		c5.4-1.7,10.7-3.6,16.1-5.3C291.1,181.1,291.1,181.2,292.3,183.4z"/>
	<path fill="#69A1AC" d="M183.8,196.1c-0.7-0.7-0.7-1.6-1-2.5c-2.4-8-4.9-16-7.3-24c-0.9-3.1-1.9-6.2-2.8-9.3
		c-0.1-0.5-0.1-0.9-0.1-1.4c10.5-1.2,20.8-3.6,30.8-7.1c9.9-3.5,19.2-8.1,28.1-13.7c1.1-0.7,1.4-0.4,1.8,0.6
		c0.2,0.5,0.3,1.1,0.8,1.4c0.1,0.4,0.1,0.7,0.3,1.1c1,2.2,1.9,4.5,2.9,6.7c1.4,3.1,2.8,6.1,4.3,9.2c0.3,1.2,0.8,2.4,1.4,3.4
		c0.8,1.3,0.4,2.2-0.7,3.1c-3.1,2.6-6.1,5.4-9.1,8.1c-0.4,0.3-0.9,0.6-1.3,0.9c-9.2,7.3-19,13.5-29.9,18
		C196.2,193.2,190.2,195.1,183.8,196.1z"/>
	<path fill="#717DAF" d="M241.6,157.2c-1.4-3.1-2.9-6.1-4.3-9.2c-1-2.2-2-4.4-2.9-6.7c-0.1-0.3-0.2-0.7-0.3-1.1
		c1.1-0.6,2.2-1.4,3.4-1.9c4.1-1.6,6.7-5,9.5-8.1c6.8-7.6,14.2-14.5,22.6-20.3c1.1-0.8,2.4-1.1,3.8-1.1c0.7,0,1.3,0.2,1.7,0.9
		c0.2,2.9-1.4,5.2-2.7,7.6c-2.2,4-4.5,8-5.9,12.5c-0.3,0.9-0.5,1.8-0.7,2.8c-0.4,2.2,0.8,3.7,3,3.7c2.4,0,4.8,0.1,7.1,0.6
		c2.5,1.8,2.5,3-0.1,4.7c-1.1,0.8-2.4,1.4-3.6,2.1c-0.3,0.1-0.6,0.1-0.8,0.2c-4.3,1.8-8.8,3.4-13.3,4.7c-1,0.3-2,0.5-2.9,1.2
		c-1.8-0.1-3.4,1-5.1,1.2c-2.1,0.3-3.6,1.4-5,2.9C244.2,155,242.9,156,241.6,157.2z"/>
	<path fill="#E3E6FE" d="M285.9,116.5c1.2,1.6,2.6,2.9,4,4.3c4.9,5.3,9.5,11,13.7,16.9c4.8,6.8,9,13.8,12.7,21.3
		c0.3,0.5,0.6,1,0.5,1.6c-1.1,0-2.2,0-3.3,0c0-1.3-0.6-1.7-1.8-1.4c-1.1,0.2-2.2,0.5-3,1.4c-13.4,0-26.7,0-40.1,0
		c-2.2,0-3.4-1.8-2.5-3.9c0.8-1.9,1.8-3.8,2.7-5.7c1.2-2.5,2.6-4.9,3.6-7.5c1.2-0.7,2.4-1.4,3.6-2.1c2.6-1.7,2.6-2.9,0.1-4.7
		c0.1-0.2,0.1-0.4,0.2-0.6C279.4,129.6,282.7,123.1,285.9,116.5z"/>
	<path fill="#C5CBFE" d="M341.2,160.7c0.7,0,1.4,0,2.1,0c0,0.1,0,0.1,0,0.2c-0.6,0-1.1,0-1.7,0C341.4,160.8,341.3,160.7,341.2,160.7
		z"/>
	<path fill="#7397FE" d="M301.4,173.3c-10.6,0-21.2-0.1-31.8,0c-4.8,0-9-1.3-12.3-4.9c-2.2-2.4-3.4-5.2-3.9-8.4
		c-0.5-3.4,0.3-6.4,1.7-9.4c0.1-0.3,0.2-0.6,0.3-0.9c0.8-0.7,1.9-0.9,2.9-1.2c4.5-1.3,8.9-2.9,13.3-4.7c0.3-0.1,0.6-0.1,0.8-0.2
		c-1,2.6-2.4,5-3.6,7.5c-0.9,1.9-1.9,3.8-2.7,5.7c-0.9,2.1,0.3,3.9,2.5,3.9c13.4,0,26.7,0,40.1,0c1.6,0,3.2,0,4.8,0
		c1.1,0,2.2,0,3.3,0c7,0,14,0,21,0.1c1.1,0,2.3,0,3.4,0c0.1,0.1,0.2,0.2,0.3,0.2c-6.8,2.3-12.8,6.4-19.2,9.7
		c-3.7,1.8-7.4,2.9-11.6,2.7C307.7,173.1,304.6,173.3,301.4,173.3z"/>
	<path fill="#DADEFE" d="M269.6,173.2c-4.8,0-9-1.3-12.3-4.9c-2.2-2.4-3.4-5.2-3.9-8.4c-0.5-3.4,0.3-6.4,1.7-9.4
		c0.1-0.3,0.2-0.6,0.3-0.9c-1.8-0.1-3.4,1-5.1,1.2c-2.1,0.3-3.6,1.4-5,2.9c-1.1,1.2-2.5,2.2-3.7,3.4c0.3,1.2,0.8,2.4,1.4,3.4
		c0.8,1.3,0.4,2.2-0.7,3.1c-3.1,2.6-6.1,5.4-9.1,8.1c-0.4,0.3-0.9,0.6-1.3,0.9c-9.2,7.3-19,13.5-29.9,18c-5.9,2.4-11.9,4.4-18.2,5.3
		c-0.1,2.7,0.6,3.5,3,4.1c3.7,0.8,7.5,1.1,11.2,1.3c6.9,0.3,13.8-0.3,20.6-1.2c8.2-1.1,16.3-2.7,24.3-4.6c3.4-0.8,6.9-1.6,10.2-2.7
		c6.5-1.6,12.9-3.6,19.3-5.7c5.4-1.7,10.7-3.6,16.1-5.3c2.5-0.8,2.5-0.7,3.7,1.5c0.5-0.3,1-0.7,1.6-0.9c4.4-1.5,7-4.5,7.5-9.2
		C290.8,173.3,280.2,173.2,269.6,173.2z"/>
	<path fill="#7397FE" d="M332.1,101.6c0,7.3,0.1,14.6,0,21.9c0,4.9-5.3,7.7-9.4,5.2c-2.1-1.3-3-3.4-3-5.9c0-12.6,0-25.2,0-37.8
		c0-1.6,0-3.3,0-4.9c0.1-3.6,2.8-6.4,6.2-6.4c3.5,0,6.2,2.7,6.2,6.4C332.1,87.2,332.1,94.4,332.1,101.6
		C332.1,101.6,332.1,101.6,332.1,101.6z"/>
	<path fill="#7397FE" d="M334.7,142.3c0,4.8-3.7,8.5-8.6,8.5c-4.7,0-8.5-3.8-8.5-8.5c0-4.8,3.8-8.5,8.6-8.5
		C331,133.8,334.7,137.6,334.7,142.3z"/>
	<path fill="#717DAF" d="M313.5,160.6c-1.6,0-3.2,0-4.8,0c0.8-0.9,1.9-1.2,3-1.4C312.9,159,313.5,159.4,313.5,160.6z"/>
</g>
</svg>
