<?xml version="1.0" encoding="utf-8"?>
<!-- Generator: Adobe Illustrator 18.0.0, SVG Export Plug-In . SVG Version: 6.00 Build 0)  -->
<!DOCTYPE svg PUBLIC "-//W3C//DTD SVG 1.1//EN" "http://www.w3.org/Graphics/SVG/1.1/DTD/svg11.dtd">
<svg version="1.1" id="Laag_1" xmlns="http://www.w3.org/2000/svg" xmlns:xlink="http://www.w3.org/1999/xlink" x="0px" y="0px"
	 width="1941.1px" height="300px" viewBox="0 0 1941.1 300" enable-background="new 0 0 1941.1 300" xml:space="preserve">
<rect x="0" y="-0.6" display="none" fill="#7396FF" width="1941.1" height="305.8"/>
<g>
	<defs>
		<path id="SVGID_1_" d="M195.9,72c-0.1,0-0.2-0.1-0.3-0.1C195.7,72,195.8,72,195.9,72 M93.8,66.2c-4.8,12.5-6.3,25.4-4.6,38.7
			c1.5,11.3,6.5,21.7,13.2,30.8c7,9.3,15.5,17.6,25.5,23.7c11.5,7,23.4,13.5,35.8,18.8c5.4,2.3,11,4.2,16.5,6.3
			c4.3,1.5,8.9,3.1,12.7,5.6c7.5,5,13.6,13.6,11.9,23c-1.8,9.7-11.4,16.8-20.8,17.9c-10.3,1.2-20.8-3.7-28.4-10.4
			c-1.6-1.5-3.2-3.1-4.6-4.8c-3.2,1-6.4,1.8-9.7,2.6c-6.1,1.5-12.2,2.6-18.4,3.2c-12.8,1.2-25.7,0.2-38-3.5
			c6.7,33.3,31.6,59.3,63.1,70.8c31,11.3,67.2,8.5,94.8-10.2c16.4-11.1,28.4-27.4,34.2-46.4c5.9-19.4,5.1-41.4-5.6-59
			c-12.4-20.5-32.6-33.1-53.6-43.5c-6-3-12.1-5.8-18.4-8.1c-5.8-2.2-11.7-4-17.4-6.6c-9.6-4.3-19.7-12.2-18.2-24
			c2-14.7,18.2-22.2,31.5-18.9c-0.7-0.2-1.4-0.4-2.1-0.5c1.4,0.4,2.9,0.7,4.3,1.1c-0.6-0.2-1.3-0.3-1.9-0.5
			c6.6,1.7,12.7,4.8,17.7,9.3c1.2,1.1,2.3,2.2,3.4,3.4c1,1.1,1,1,2.5,0.6c1-0.3,2.1-0.6,3.1-0.9c4.1-1.1,8.3-2.2,12.5-3
			c8.2-1.6,16.6-2.3,24.9-1.5c8.3,0.8,16.3,2.9,24.5,4.4c-4.8-40.8-44.6-70.4-83.1-76.8c-40.6-6.7-87.5,12.1-104.8,51
			C95.6,61.1,94.6,63.6,93.8,66.2"/>
	</defs>
	<use xlink:href="#SVGID_1_"  overflow="visible" fill="#FFFFFF"/>
	<clipPath id="SVGID_2_">
		<use xlink:href="#SVGID_1_"  overflow="visible"/>
	</clipPath>
</g>
<linearGradient id="SVGID_3_" gradientUnits="userSpaceOnUse" x1="219.1267" y1="32.4816" x2="243.4742" y2="99.3757">
	<stop  offset="0" style="stop-color:#FFFFFF"/>
	<stop  offset="0.221" style="stop-color:#FCFDFF"/>
	<stop  offset="0.3879" style="stop-color:#F2F6FF"/>
	<stop  offset="0.5372" style="stop-color:#E2E9FF"/>
	<stop  offset="0.676" style="stop-color:#CBD8FF"/>
	<stop  offset="0.8076" style="stop-color:#AEC2FF"/>
	<stop  offset="0.9322" style="stop-color:#8AA7FF"/>
	<stop  offset="1" style="stop-color:#7396FF"/>
</linearGradient>
<path fill="url(#SVGID_3_)" d="M195.6,72c-0.7-0.2-1.4-0.4-2.1-0.5c1.4,0.4,2.9,0.7,4.3,1.1c-0.6-0.2-1.3-0.3-1.9-0.5
	c6.6,1.7,12.7,4.8,17.7,9.3c1.2,1.1,2.3,2.2,3.4,3.4c1,1.1,1,1,2.5,0.6c1-0.3,2.1-0.6,3.1-0.9c4.1-1.1,8.3-2.2,12.5-3
	c8.2-1.6,16.6-2.3,24.9-1.5c8.3,0.8,16.3,2.9,24.5,4.4c-3-25.6-19.9-46.8-41.5-60.7c-4.8,1.9-9.5,4.1-14,6.6
	c-6.9,3.8-13,8.5-19.3,13.2c-6.7,6.6-13.4,13-19.2,20.4c-1.9,2.5-3.8,5-5.6,7.6C188.4,71.1,192.1,71.2,195.6,72z"/>
<linearGradient id="SVGID_4_" gradientUnits="userSpaceOnUse" x1="913.791" y1="102.0249" x2="939.4068" y2="172.4039" gradientTransform="matrix(-1 0 0 -1 1065.9576 372.3205)">
	<stop  offset="0" style="stop-color:#FFFFFF"/>
	<stop  offset="0.221" style="stop-color:#FCFDFF"/>
	<stop  offset="0.3879" style="stop-color:#F2F6FF"/>
	<stop  offset="0.5372" style="stop-color:#E2E9FF"/>
	<stop  offset="0.676" style="stop-color:#CBD8FF"/>
	<stop  offset="0.8076" style="stop-color:#AEC2FF"/>
	<stop  offset="0.9322" style="stop-color:#8AA7FF"/>
	<stop  offset="1" style="stop-color:#7396FF"/>
</linearGradient>
<path fill="url(#SVGID_4_)" d="M161.1,259c7.1-6.9,14.1-13.7,20.2-21.5c1.9-2.4,3.6-4.8,5.4-7.3c-0.9,0.2-1.9,0.4-2.8,0.5
	c-10.3,1.2-20.8-3.7-28.4-10.4c-1.6-1.5-3.2-3.1-4.6-4.8c-3.2,1-6.4,1.8-9.7,2.6c-6.1,1.5-12.2,2.6-18.4,3.2
	c-12.8,1.2-25.7,0.2-38-3.5c5.2,25.9,21.5,47.4,43.4,61.1c4.2-1.8,8.4-3.7,12.4-6C148,268.9,154.5,263.9,161.1,259z"/>
<g>
	<linearGradient id="SVGID_5_" gradientUnits="userSpaceOnUse" x1="136.62" y1="133.6068" x2="59.3446" y2="210.8822">
		<stop  offset="0" style="stop-color:#7396FF"/>
		<stop  offset="3.568852e-02" style="stop-color:#7B9BFF"/>
		<stop  offset="0.1991" style="stop-color:#99B0FF"/>
		<stop  offset="0.371" style="stop-color:#B1C0FF"/>
		<stop  offset="0.5531" style="stop-color:#C2CBFF"/>
		<stop  offset="0.7522" style="stop-color:#CCD2FF"/>
		<stop  offset="1" style="stop-color:#CFD4FF"/>
	</linearGradient>
	<path fill="url(#SVGID_5_)" d="M151.1,215.6c-6.6,2-13.1,4.1-19.9,5.2c-6.7,1.1-13.5,1.6-20.3,1.3c-13-0.4-25.8-3.5-37.7-8.8
		c-21.9-9.8-40-26.7-54.6-45.5c-1.9-2.5-3.8-5.1-5.7-7.6c-1.9-2.7-4.3-5.4-5.7-8.4c-1-2,4.6-4.4,5.9-5.2c3.1-2,6.3-4.1,9.4-6.1
		c12.1-7.8,24.1-15.6,36.1-23.5c0.7-0.5,2.2-1.9,3-1.1c0.9,0.9,1.5,2.2,2.2,3.3c1.8,2.7,3.8,5.4,5.8,8c3.9,5,8,9.8,12.6,14.2
		c8.7,8.2,19.5,15.5,31.9,15.6c1.7,0,3.3-0.1,5-0.4c0.8-0.1,1.7-0.3,2.5-0.5c1.2-0.3,1.9,0.4,2.9,1.1c3.2,2.1,6.5,4.1,9.8,6
		c6.5,3.7,13,7.2,19.7,10.4c6.4,3.1,13,6,19.7,8.4c3.4,1.2,5.4,1.8,8.9,3c1.7,0.6,4.5,1.7,6,2.4c1.1,0.5,3,1.5,4.3,2.5
		c-6.3,5.5-13,10.4-20.1,14.8c-3.4,2.1-7,4-10.6,5.8c-1.8,0.9-3.7,1.8-5.5,2.6C155,213.9,153,214.8,151.1,215.6"/>
	<linearGradient id="SVGID_6_" gradientUnits="userSpaceOnUse" x1="231.8245" y1="167.4837" x2="308.429" y2="90.8791">
		<stop  offset="0" style="stop-color:#7396FF"/>
		<stop  offset="3.568852e-02" style="stop-color:#7B9BFF"/>
		<stop  offset="0.1991" style="stop-color:#99B0FF"/>
		<stop  offset="0.371" style="stop-color:#B1C0FF"/>
		<stop  offset="0.5531" style="stop-color:#C2CBFF"/>
		<stop  offset="0.7522" style="stop-color:#CCD2FF"/>
		<stop  offset="1" style="stop-color:#CFD4FF"/>
	</linearGradient>
	<path fill="url(#SVGID_6_)" d="M218,85.7c6.8-2,13.5-4,20.5-5c6.8-1,13.7-1.4,20.5-1c13.3,0.7,26.1,4.2,38.2,9.9
		c23.4,11,42.1,30.3,57,51c1.8,2.5,3.6,5,5.3,7.6c0.5,0.8,1.9,2.2,1.1,3.1c-1.1,1.3-3.1,2.1-4.5,3c-6,3.9-12,7.8-18,11.7
		c-6,3.9-12,7.8-18,11.7c-2.9,1.9-5.8,3.7-8.6,5.6c-1.3,0.9-2.7,2-4.1,2.6c-1.3,0.6-2-1.2-2.5-2c-6.9-10.3-14.6-20.1-24.3-27.9
		c-9.6-7.8-21.9-13.6-34.4-10.2c-11.1-7.5-23-14.2-35.2-19.7c-6.1-2.8-12.5-5.2-18.8-7.4c-5.6-2-11.3-4.2-16.5-7.5
		c6.2-5.4,12.7-10.1,19.7-14.3C202.6,92.5,210.2,89.1,218,85.7"/>
</g>
<g>
	<path fill="#FFFFFF" d="M500.1,164.5c9.2,6.5,13.8,15.8,13.8,27.8c0,5.5-1.3,10.7-3.9,15.6c-2.6,4.9-6.2,9.1-10.7,12.8
		c-4.5,3.7-9.8,6.6-15.8,8.7c-6,2.1-12.5,3.1-19.3,3.1c-5.2,0-10.2-0.7-15.2-2c-4.9-1.3-9.5-3.2-13.7-5.5c-4.2-2.3-7.8-5.1-10.9-8.4
		c-3.1-3.3-5.4-6.9-6.9-10.9c3.9-1.8,8.1-3.9,12.8-6.2c4.7-2.3,8.8-4.3,12.3-6.2c1.5,2.5,3.8,4.8,7,6.9c3.2,2.1,7.5,3.1,13.1,3.1
		c5.7,0,9.9-1.3,12.6-4c2.7-2.7,4-5.2,4-7.5c0-1.7-0.9-3.2-2.8-4.7c-1.9-1.4-3.9-2.6-6.3-3.4c-3.4-1.3-6.1-2-8.3-2.1
		c-2.2-0.1-4.7-0.5-7.5-1.4c-9-2.2-15.9-5.1-20.7-8.7c-4.8-3.6-8.2-7.2-10.4-10.9c-2.2-3.7-3.4-7.2-3.6-10.5c-0.3-3.4-0.4-6-0.4-8
		c0-5.3,1.2-10.5,3.5-15.3c2.3-4.9,5.6-9.1,9.7-12.7c4.1-3.6,8.9-6.5,14.3-8.7c5.4-2.2,11.3-3.3,17.4-3.3c5.2,0,10.1,0.8,14.8,2.3
		c4.7,1.5,9,3.6,12.8,6.3c3.9,2.7,7.2,5.9,9.9,9.5c2.8,3.7,4.8,7.8,6.2,12.3l-26.9,9c-1-3-3.1-5.4-6.1-7.3c-3.1-1.8-6.4-2.8-9.9-2.8
		c-3.5,0-6.4,1.2-8.5,3.5c-2.2,2.3-3.3,4.7-3.3,7c0,2.9,1,5.1,3.1,6.6c2.1,1.6,4.4,2.7,6.9,3.4c1.8,0.3,3.6,0.6,5.4,0.9
		c1.8,0.3,3.5,0.6,5.1,0.9c5.9,1.4,10.9,2.9,15.2,4.5C493.2,160.2,496.9,162.2,500.1,164.5"/>
	<path fill="#FFFFFF" d="M593.5,101.8c8.9,0,17.2,1.7,25.1,5.1c7.9,3.4,14.7,8.1,20.6,14.1c5.9,5.9,10.5,12.9,13.9,20.8
		c3.4,7.9,5.1,16.4,5.1,25.5c0,9-1.7,17.5-5.1,25.5c-3.4,7.9-8.1,14.9-13.9,20.8c-5.9,5.9-12.7,10.6-20.6,14
		c-7.9,3.4-16.2,5.1-25.1,5.1c-9,0-17.5-1.7-25.4-5.1c-7.9-3.4-14.7-8.1-20.6-14c-5.9-6-10.5-12.9-13.9-20.8
		c-3.4-8-5.1-16.5-5.1-25.5c0-9,1.7-17.5,5.1-25.5c3.4-8,8.1-14.9,13.9-20.8c5.9-5.9,12.7-10.6,20.6-14.1
		C576,103.5,584.4,101.8,593.5,101.8 M593.5,202.4c4.2,0,8.1-0.8,11.7-2.5c3.6-1.7,6.8-4,9.5-6.9c2.8-2.9,4.9-6.4,6.5-10.5
		c1.6-4.1,2.4-8.7,2.4-13.7c0-5-0.8-9.7-2.4-14.1c-1.6-4.3-3.8-8.2-6.5-11.4c-2.8-3.3-5.9-5.9-9.5-7.8c-3.6-1.9-7.5-2.9-11.7-2.9
		c-4.2,0-8.1,1-11.8,2.9c-3.7,1.9-6.9,4.5-9.7,7.8c-2.8,3.2-4.9,7.1-6.5,11.4c-1.6,4.4-2.4,9-2.4,14.1c0,5,0.8,9.6,2.4,13.7
		c1.6,4.1,3.8,7.6,6.5,10.5c2.8,2.9,6,5.2,9.7,6.9C585.3,201.6,589.3,202.4,593.5,202.4"/>
	<path fill="#FFFFFF" d="M755.1,105.3h34.6v124.5h-29.6l-5-9.5c-4,2.8-8.6,5.1-13.7,6.9c-5.1,1.8-10.6,2.6-16.4,2.6
		c-4.5,0-9.7-0.7-15.4-2c-5.8-1.3-11.2-3.8-16.2-7.5c-5-3.7-9.2-8.8-12.7-15.3c-3.4-6.5-5.1-15-5.1-25.3v-74.3h34.6v72.9
		c0,3.8,0.6,7.1,1.9,9.8c1.3,2.7,2.9,4.8,5,6.4c2.1,1.6,4.5,2.7,7.2,3.5c2.7,0.7,5.5,1.1,8.3,1.1c2.2,0,4.6-0.4,7.2-1.1
		c2.6-0.8,5.1-2,7.3-3.6c2.3-1.7,4.2-3.9,5.7-6.5c1.5-2.7,2.3-5.8,2.3-9.5V105.3z"/>
	<path fill="#FFFFFF" d="M877.3,105.3c4.7,0,9.8,0.7,15.5,2c5.7,1.3,11,3.8,16,7.5c5,3.7,9.2,8.8,12.6,15.3c3.4,6.5,5.1,15,5.1,25.4
		v74.3h-34.6v-72.9c0-3.8-0.6-7.1-1.9-9.8c-1.3-2.7-2.9-4.8-5-6.4c-2.1-1.6-4.5-2.7-7.2-3.5c-2.7-0.8-5.4-1.1-8-1.1
		c-2.2,0-4.6,0.4-7.2,1.1c-2.6,0.7-5,2-7.3,3.6c-2.2,1.7-4.1,3.8-5.6,6.5c-1.5,2.7-2.3,5.9-2.3,9.5v72.9h-34.6V105.3h29.6l5,9.5
		c4-2.8,8.5-5.2,13.5-6.9C866,106.2,871.4,105.3,877.3,105.3"/>
	<path fill="#FFFFFF" d="M1073.9,46.5v183.2h-29.6l-5-10.8c-3.8,4-9.2,7.3-15.9,9.9c-6.8,2.6-13.8,3.9-21.2,3.9
		c-8.9,0-17.1-1.7-24.6-5.1c-7.5-3.4-14-8.1-19.5-14c-5.4-6-9.7-12.9-12.8-20.8c-3.1-8-4.6-16.5-4.6-25.5c0-9,1.5-17.5,4.6-25.5
		c3.1-8,7.4-14.9,12.8-20.8c5.4-5.9,11.9-10.6,19.5-14.1c7.5-3.4,15.7-5.1,24.6-5.1c7.9,0,14.9,0.9,20.9,2.8
		c6.1,1.8,11.5,4.9,16.2,9.3V46.5H1073.9z M1039.2,167.8c0-6.5-0.8-12-2.5-16.4c-1.7-4.4-4-8-7-10.8c-3-2.7-6.5-4.8-10.4-6
		c-3.9-1.3-8.2-1.9-12.7-1.9c-4.5,0-8.7,0.9-12.7,2.8c-3.9,1.8-7.4,4.3-10.3,7.4c-2.9,3.1-5.2,6.8-6.9,11.1
		c-1.7,4.2-2.5,8.7-2.5,13.4c0,4.9,0.8,9.4,2.5,13.6c1.7,4.2,4,7.8,6.9,10.9c2.9,3.1,6.4,5.6,10.3,7.4c3.9,1.8,8.2,2.7,12.7,2.7
		c9,0,16.7-2.8,23-8.4C1035.9,187.9,1039.1,179.3,1039.2,167.8"/>
	<path fill="#FFFFFF" d="M1235,105.3c4.5,0,9.4,0.7,14.5,2.2c5.2,1.5,10,4.2,14.4,8c4.4,3.9,8.1,9.1,10.9,15.8
		c2.8,6.7,4.3,15.2,4.3,25.6v72.8h-34.6v-66.3c0-5-0.5-9.3-1.6-12.8c-1.1-3.5-2.6-6.4-4.4-8.5c-1.8-2.2-4-3.7-6.4-4.6
		c-2.4-0.9-4.9-1.4-7.4-1.4c-2.3,0-4.7,0.4-7,1.2c-2.3,0.8-4.4,2.3-6.3,4.3c-1.8,2-3.3,4.8-4.4,8.3c-1.1,3.5-1.6,7.9-1.6,13.3v66.6
		h-34.6v-66.3c0-10.2-1.8-17.3-5.3-21.3c-3.5-4-8.6-6-15.3-6c-4.9,0-9.2,2.3-13.1,6.8c-3.8,4.5-5.8,11.5-5.8,21v65.8h-34.6V105.3
		h29.6l5,11.6c3.9-3.7,8.3-6.6,13.4-8.6c5.1-2,10.6-3,16.4-3c3,0,6.2,0.3,9.5,0.9c3.4,0.6,6.6,1.7,9.8,3.2c3.2,1.5,6.2,3.5,9.2,6
		c2.9,2.4,5.6,5.5,7.9,9.2c2-3.2,4.4-6,7.3-8.5c2.8-2.5,5.9-4.5,9.3-6.1c3.4-1.6,6.8-2.8,10.4-3.5
		C1228.2,105.7,1231.7,105.3,1235,105.3"/>
	<path fill="#FFFFFF" d="M1431.6,105.3v124.5h-29.9l-3.5-13.3c-4.9,6.5-10.7,10.9-17.4,13.1c-6.8,2.2-13.9,3.3-21.2,3.3
		c-8.8,0-17-1.7-24.5-5.1c-7.5-3.4-13.9-8.1-19.5-14.1c-5.5-6-9.8-12.9-12.9-20.8c-3.1-8-4.6-16.4-4.6-25.5c0-9,1.5-17.5,4.6-25.5
		c3.1-8,7.4-14.9,12.9-20.8c5.5-6,12-10.6,19.5-14.1c7.5-3.4,15.6-5.1,24.5-5.1c8,0,15.4,1.3,22.1,3.8c6.7,2.5,12.2,6.5,16.5,12.1
		l3.5-12.3H1431.6z M1396.9,167.8c0-6.5-0.9-12-2.6-16.4c-1.8-4.4-4.1-8-7-10.8c-2.9-2.7-6.4-4.8-10.3-6c-3.9-1.3-8.2-1.9-12.7-1.9
		c-4.5,0-8.7,0.9-12.7,2.8c-3.9,1.8-7.4,4.3-10.4,7.4c-3,3.1-5.4,6.8-7,11.1c-1.7,4.2-2.5,8.7-2.5,13.4c0,4.9,0.8,9.4,2.5,13.6
		c1.7,4.2,4,7.8,7,10.9c3,3.1,6.5,5.6,10.4,7.4c3.9,1.8,8.2,2.7,12.7,2.7c9.1,0,16.7-2.8,23-8.4
		C1393.6,187.9,1396.8,179.3,1396.9,167.8"/>
	<path fill="#FFFFFF" d="M1488.1,122.6c1.7-2.7,3.6-5.2,5.8-7.7c2.2-2.4,4.8-4.6,7.8-6.5c3-1.9,6.4-3.5,10.3-4.6
		c3.8-1.2,8.2-1.8,13.1-1.8c5.7,0,12.3,1,19.8,3l-3.3,30.9c-1.9-0.3-3.7-0.7-5.5-1.3c-1.5-0.3-3.2-0.6-5-0.9c-1.8-0.2-3.5-0.4-5-0.4
		c-5.4,0-10.3,0.7-15,2.3c-4.6,1.5-8.6,3.6-11.9,6.3c-3.4,2.7-6,5.9-8,9.7c-2,3.8-3,7.8-3,12.2v66h-34.6V105.3h31.4L1488.1,122.6z"
		/>
</g>
<polygon fill="#FFFFFF" points="1557.6,46.5 1557.6,229.8 1592.2,229.8 1592.2,193.4 1604.5,180.1 1637.4,229.8 1678.8,229.8 
	1626.4,157 1674.8,105.3 1632.7,105.3 1592.2,148.2 1592.2,46.5 "/>
<g>
	<path fill="#FFFFFF" d="M1753.4,101.8c9.4,0,17.9,1.9,25.6,5.6s14.3,8.7,19.8,14.8c5.5,6.1,9.8,13.1,12.8,21.1
		c3,7.9,4.5,16.1,4.5,24.5c0,5-0.7,10.4-2,16.1h-88.9c3.3,5.7,8.1,10.5,14.3,14.4c6.2,3.9,12.9,5.9,20.1,5.9
		c7.2,0,13.5-0.6,18.9-1.8c5.4-1.2,10.6-2.7,15.4-4.5l11.6,21.3c-6.2,4.4-13.3,7.7-21.2,10.1c-7.9,2.3-16.4,3.5-25.5,3.5
		c-9.9,0-19.1-1.7-27.6-5.1c-8.5-3.4-16-8.1-22.3-13.9c-6.4-5.9-11.4-12.8-15.1-20.8c-3.7-8-5.5-16.6-5.5-25.6
		c0-8.9,1.7-17.3,5-25.2c3.4-7.9,8-14.9,13.9-20.8c5.9-5.9,12.8-10.7,20.7-14.2C1735.9,103.5,1744.4,101.8,1753.4,101.8 M1781.8,157
		c-2-7.2-5.6-13-10.8-17.6c-5.2-4.5-11-6.8-17.6-6.8c-6.7,0-12.8,2.3-18.2,6.8c-5.4,4.5-9.2,10.4-11.1,17.6H1781.8z"/>
	<path fill="#FFFFFF" d="M1875.4,122.6c1.7-2.7,3.6-5.2,5.8-7.7c2.2-2.4,4.8-4.6,7.8-6.5c3-1.9,6.4-3.5,10.3-4.6
		c3.8-1.2,8.2-1.8,13.1-1.8c5.7,0,12.3,1,19.8,3l-3.3,30.9c-1.9-0.3-3.7-0.7-5.5-1.3c-1.5-0.3-3.2-0.6-5-0.9c-1.8-0.2-3.5-0.4-5-0.4
		c-5.4,0-10.3,0.7-15,2.3c-4.6,1.5-8.6,3.6-11.9,6.3c-3.4,2.7-6,5.9-8,9.7c-2,3.8-3,7.8-3,12.2v66h-34.6V105.3h31.4L1875.4,122.6z"
		/>
</g>
</svg>
