<?xml version="1.0" encoding="utf-8"?>
<!-- Generator: Adobe Illustrator 18.0.0, SVG Export Plug-In . SVG Version: 6.00 Build 0)  -->
<!DOCTYPE svg PUBLIC "-//W3C//DTD SVG 1.1//EN" "http://www.w3.org/Graphics/SVG/1.1/DTD/svg11.dtd">
<svg version="1.1" id="Laag_1" xmlns="http://www.w3.org/2000/svg" xmlns:xlink="http://www.w3.org/1999/xlink" x="0px" y="0px"
	 viewBox="0 0 3401.6 566.9" enable-background="new 0 0 3401.6 566.9" xml:space="preserve">
<g>
	<path fill="#567D93" d="M277.4,307.1c-19.5-13.7-35.9-30.3-46.6-51.8c-13.6-27.4-16.5-56.7-13.1-86.8c4.3-38,21-69.7,49.6-95
		c26.1-23.1,57-36.8,91-43.2c43.8-8.3,86.6-4.7,128,12.5c38.2,15.9,67.9,41.3,86.3,78.9c1,2.1,1.8,4.4,2.6,6.5
		c-1.1,0-2.2,0.1-3.2-0.1c-32.3-3.9-63.3,1.5-93.3,13.6c-12.4,5-23.6,12.2-35.5,18.1c-19.1-10.2-39.5-11.5-60.4-8
		c-10.9,1.8-21.2,5.6-30.2,12.3c-16,12.1-13.9,34.4,4.1,42.8c8,3.7,16.5,6.1,25.2,7.6c4.6,1.1,9.2,2.2,13.8,3.1
		c27,5.4,54.2,9.7,80.5,18.1c16.5,5.3,31.6,13.5,47.1,21c21.1,13.7,38.6,30.8,50.5,53.3c9.5,18,13.3,37.4,14.7,57.6
		c2.4,33.5-4.8,64.5-22.6,92.9c-22.7,36.2-56.4,57.9-96.5,70.3c-40.8,12.6-82.3,13.7-123.4,2.5c-48.1-13.1-87.5-38.9-111.4-84.5
		c-2.5-4.7-5.1-9.5-6.4-14.7c31.3,4.6,61.5,0.3,91.1-10.3c13.8-5,26.4-12.4,39.5-18.9c19.1,11.7,40,13.7,61.6,10.4
		c12.4-1.9,24.3-5.7,34-14.2c14.4-12.6,11.6-33-5.4-41.1c-9.2-4.3-18.9-6.9-28.9-8.5c-2.5-0.6-5-1.4-7.5-1.9
		c-21.7-4.3-43.4-8.1-64.9-13.3C322.7,330.5,299.6,319.9,277.4,307.1z"/>
	<path fill="#F6B391" d="M523.2,256.9c-15.5-7.5-30.6-15.7-47.1-21c-26.3-8.4-53.5-12.7-80.5-18.1c-4.6-0.9-9.2-2.1-13.8-3.1
		c10.4-12.1,21.5-23.4,33.8-33.5c8.9-7.3,18.3-14.2,27.4-21.2c11.9-5.9,23.1-13.1,35.5-18.1c30-12,61-17.4,93.3-13.6
		c1.1,0.1,2.1,0.1,3.2,0.1c58.4,8.5,104.1,39.8,143.9,81.3c20.9,21.8,39.1,45.8,55.9,70.9c2.5,3.8,1.7,5.3-1.7,7.5
		c-31.6,20.5-63.2,41.1-94.6,61.9c-4,2.6-5.3,1.2-7.3-1.9c-15.1-22.9-31.9-44.4-51.9-63.3c-9.3-8.8-19.3-16.5-30.3-23
		C568,249.2,546.1,246.7,523.2,256.9z"/>
	<path fill="#F6B391" d="M277.4,307.1c22.2,12.7,45.3,23.3,70.4,29.4c21.5,5.2,43.2,9,64.9,13.3c2.5,0.5,5,1.2,7.5,1.9
		c-10.1,11.7-21.1,22.4-33.2,32c-9.2,7.3-18.7,14.2-28.1,21.3c-13.1,6.5-25.6,13.9-39.5,18.9c-29.6,10.6-59.8,15-91.1,10.3
		c-35.5-5-67.3-19.3-96.1-40.2c-42-30.4-74.2-69.8-102.7-112.5c-2-2.9-1.5-4.1,1.3-6c31.4-20.4,62.8-40.9,94.1-61.6
		c4.6-3.1,6.6-2.3,9.5,2.1c15.7,23.8,33.3,46.1,54.6,65.3c13.8,12.5,28.8,23.4,47.1,28.5C250.1,313.9,264,313.7,277.4,307.1z"/>
</g>
<g>
	<path fill="#567D93" d="M952.2,341.2c2.7,16.4,17.5,22.5,33.9,22.5c16,0,24.8-6.9,24.8-15.2c0-6.5-4.9-11.4-19-14.1l-38.9-7.6
		c-35.4-6.5-55.6-25.5-55.6-55.6c0-39.2,33.9-64.8,82.3-64.8c47.6,0,79.2,21.7,86.9,54.9l-55.6,11.1c-1.9-11.8-13.3-22.5-32-22.5
		c-16.4,0-21.7,8-21.7,14.9c0,5.3,2.3,10.7,14.5,13.3l45,9.1c36.2,7.6,53,29.3,53,57.5c0,42.3-36.6,64.4-86.9,64.4
		c-45,0-83.4-16.4-89.9-55.6L952.2,341.2z"/>
	<path fill="#567D93" d="M1299,307.7c0,60.6-48,101-104.8,101c-57.9,0-105.9-40.4-105.9-101c0-60.2,48-100.6,105.9-100.6
		C1251,207.1,1299,247.5,1299,307.7z M1240.3,307.7c0-29.7-22.5-49.5-46.1-49.5c-24.8,0-47.2,19.8-47.2,49.5
		c0,30.1,22.5,49.5,47.2,49.5C1217.9,357.3,1240.3,337.8,1240.3,307.7z"/>
	<path fill="#567D93" d="M1522,403.4h-61v-18.3c-14.5,15.2-34.7,24-58.7,24c-44.6,0-74.3-31.6-74.3-79.6V212.1h60.6v104.4
		c0,22.5,13.3,37.7,32.8,37.7c24,0,39.6-16.4,39.6-53.3v-88.8h61V403.4z"/>
	<path fill="#567D93" d="M1760.3,286v117.3h-60.6V299c0-22.5-13.3-37.7-32.8-37.7c-24,0-39.6,16.4-39.6,53.3v88.8h-61V212.1h61v18.3
		c14.5-15.2,34.7-24,58.7-24C1730.5,206.4,1760.3,238,1760.3,286z"/>
	<path fill="#567D93" d="M2003.1,403.4h-61v-15.2c-14.9,13.3-34.7,21-59.4,21c-50.7,0-93.3-40.8-93.3-101.3
		c0-60.2,42.7-101.3,93.3-101.3c24.8,0,44.6,7.6,59.4,21V110h61V403.4z M1942.1,307.7c0-29.3-22.1-49.5-46.9-49.5
		c-26.7,0-46.1,20.2-46.1,49.5c0,29.7,19.4,49.5,46.1,49.5C1920,357.3,1942.1,337.4,1942.1,307.7z"/>
	<path fill="#567D93" d="M2368.2,283.7v119.6h-60.6V296.7c0-21.7-14.1-35.4-32-35.4c-22.5,0-37.4,16.4-37.4,48.4v93.7h-61V296.7
		c0-21.7-14.1-35.4-32.4-35.4c-22.1,0-36.6,16.4-36.6,48.4v93.7h-61V212.1h61v17.5c13-14.5,31.6-23.2,56.4-23.2
		c26.7,0,49.5,11.4,62.5,32.4c15.2-19.8,38.1-32.4,67.8-32.4C2335.8,206.4,2368.2,237.2,2368.2,283.7z"/>
	<path fill="#567D93" d="M2583.7,282.2v121.2H2525v-14.1c-13.3,11.4-31.6,19.8-57.1,19.8c-42.7,0-71.2-24.8-71.2-62.5
		c0-37.3,28.6-61.7,79.6-61.7h48.8v-3.8c0-16-11-26.7-27-26.7c-18.3,0-29,7.2-32,24l-57.5-11.8c8.4-37,41.9-60.2,87.6-60.2
		C2549.7,206.4,2583.7,233.4,2583.7,282.2z M2525,327.9v-4.2h-41.9c-15.2,0-24.8,8-24.8,19.8c0,12.2,10.7,19.8,26.7,19.8
		C2505.9,363.4,2525,349.3,2525,327.9z"/>
	<path fill="#567D93" d="M2762.4,211l-2.7,61h-11c-42.7,0-65.9,22.1-65.9,71.6v59.8h-61V212.1h61v36.6
		c13.7-22.9,34.7-39.2,65.9-39.2C2754.1,209.4,2757.9,209.8,2762.4,211z"/>
	<path fill="#567D93" d="M2929.4,403.4l-51.1-65.1l-28.9,32.8v32.4h-61V110h61v178.7l68.9-76.6h71.3l-70.5,80l85.3,111.2H2929.4z"/>
	<path fill="#567D93" d="M3200.4,323.4h-140.2c5,22.9,20.6,36.9,41.2,36.9c14.1,0,30.5-3.4,40.8-22.1l54.1,11
		c-16.4,40.4-51,59.8-94.9,59.8c-55.2,0-101-40.8-101-101.3c0-60.2,45.7-101.3,101.3-101.3c54.1,0,97.5,38.9,98.7,101.3V323.4z
		 M3061.4,286h78.9c-5.7-20.6-20.9-30.1-38.5-30.1C3084.6,255.9,3067.1,266.6,3061.4,286z"/>
	<path fill="#567D93" d="M3372.8,211l-2.7,61h-11c-42.7,0-65.9,22.1-65.9,71.6v59.8h-61V212.1h61v36.6
		c13.7-22.9,34.7-39.2,65.9-39.2C3364.4,209.4,3368.2,209.8,3372.8,211z"/>
</g>
</svg>
