<?xml version="1.0" encoding="utf-8"?>
<!-- Generator: Adobe Illustrator 18.0.0, SVG Export Plug-In . SVG Version: 6.00 Build 0)  -->
<!DOCTYPE svg PUBLIC "-//W3C//DTD SVG 1.1//EN" "http://www.w3.org/Graphics/SVG/1.1/DTD/svg11.dtd">
<svg version="1.1" id="Laag_1" xmlns="http://www.w3.org/2000/svg" xmlns:xlink="http://www.w3.org/1999/xlink" x="0px" y="0px"
	 viewBox="0 0 3401.6 566.9" enable-background="new 0 0 3401.6 566.9" xml:space="preserve">
<g>
	<g>
		<path fill="#5673AB" d="M437.4,307.1c-19.5-13.7-35.9-30.3-46.6-51.8c-13.6-27.4-16.5-56.7-13.1-86.8c4.3-38,21-69.7,49.6-95
			c26.1-23.1,57-36.8,91-43.2c43.8-8.3,86.6-4.7,128,12.5c38.2,15.9,67.9,41.3,86.3,78.9c1,2.1,1.8,4.4,2.6,6.5
			c-1.1,0-2.2,0.1-3.2-0.1c-32.3-3.9-63.3,1.5-93.3,13.6c-12.4,5-23.6,12.2-35.5,18.1c-19.1-10.2-39.5-11.5-60.4-8
			c-10.9,1.8-21.2,5.6-30.2,12.3c-16,12.1-13.9,34.4,4.1,42.8c8,3.7,16.5,6.1,25.2,7.6c4.6,1.1,9.2,2.2,13.8,3.1
			c27,5.4,54.2,9.7,80.5,18.1c16.5,5.3,31.6,13.5,47.1,21c21.1,13.7,38.6,30.8,50.5,53.3c9.5,18,13.3,37.4,14.7,57.6
			c2.4,33.5-4.8,64.5-22.6,92.9c-22.7,36.2-56.4,57.9-96.5,70.3c-40.8,12.6-82.3,13.7-123.4,2.5c-48.1-13.1-87.5-38.9-111.4-84.5
			c-2.5-4.7-5.1-9.5-6.4-14.7c31.3,4.6,61.5,0.3,91.1-10.3c13.8-5,26.4-12.4,39.5-18.9c19.1,11.7,40,13.7,61.6,10.4
			c12.4-1.9,24.3-5.7,34-14.2c14.4-12.6,11.6-33-5.4-41.1c-9.2-4.3-18.9-6.9-28.9-8.5c-2.5-0.6-5-1.4-7.5-1.9
			c-21.7-4.3-43.4-8.1-64.9-13.3C482.7,330.5,459.6,319.9,437.4,307.1z"/>
	</g>
	<path fill="#F0827E" d="M683.2,256.9c-15.5-7.5-30.6-15.7-47.1-21c-26.3-8.4-53.5-12.7-80.5-18.1c-4.6-0.9-9.2-2.1-13.8-3.1
		c10.4-12.1,21.5-23.4,33.8-33.5c8.9-7.3,18.3-14.2,27.4-21.2c11.9-5.9,23.1-13.1,35.5-18.1c30-12,61-17.4,93.3-13.6
		c1.1,0.1,2.1,0.1,3.2,0.1c58.4,8.5,104.1,39.8,143.9,81.3c20.9,21.8,39.1,45.8,55.9,70.9c2.5,3.8,1.7,5.3-1.7,7.5
		c-31.6,20.5-63.2,41.1-94.6,61.9c-4,2.6-5.3,1.2-7.3-1.9c-15.1-22.9-31.9-44.4-51.9-63.3c-9.3-8.8-19.3-16.5-30.3-23
		C728,249.2,706.1,246.7,683.2,256.9z"/>
	<path fill="#F0827E" d="M437.4,307.1c22.2,12.7,45.3,23.3,70.4,29.4c21.5,5.2,43.2,9,64.9,13.3c2.5,0.5,5,1.2,7.5,1.9
		c-10.1,11.7-21.1,22.4-33.2,32c-9.2,7.3-18.7,14.2-28.1,21.3c-13.1,6.5-25.6,13.9-39.5,18.9c-29.6,10.6-59.8,15-91.1,10.3
		c-35.5-5-67.3-19.3-96.1-40.2c-42-30.4-74.2-69.8-102.7-112.5c-2-2.9-1.5-4.1,1.3-6c31.4-20.4,62.8-40.9,94.1-61.6
		c4.6-3.1,6.6-2.3,9.5,2.1c15.7,23.8,33.3,46.1,54.6,65.3c13.8,12.5,28.8,23.4,47.1,28.5C410.1,313.9,424,313.7,437.4,307.1z"/>
</g>
<g>
	<path fill="#5673AB" d="M1091.3,332c2.4,14.9,16,20.5,30.9,20.5c14.6,0,22.6-6.2,22.6-13.9c0-5.9-4.5-10.4-17.4-12.8l-35.4-6.9
		c-32.3-5.9-50.7-23.3-50.7-50.7c0-35.8,30.9-59,75-59c43.4,0,72.2,19.8,79.2,50l-50.7,10.1c-1.7-10.8-12.2-20.5-29.2-20.5
		c-14.9,0-19.8,7.3-19.8,13.5c0,4.9,2.1,9.7,13.2,12.2l41,8.3c33,7,48.3,26.7,48.3,52.4c0,38.5-33.3,58.7-79.2,58.7
		c-41,0-76-14.9-81.9-50.7L1091.3,332z"/>
	<path fill="#5673AB" d="M1407.3,301.5c0,55.2-43.7,92-95.5,92c-52.8,0-96.5-36.8-96.5-92c0-54.9,43.7-91.7,96.5-91.7
		C1363.6,209.8,1407.3,246.6,1407.3,301.5z M1353.9,301.5c0-27.1-20.5-45.1-42-45.1c-22.6,0-43,18-43,45.1c0,27.4,20.5,45.1,43,45.1
		C1333.4,346.6,1353.9,328.9,1353.9,301.5z"/>
	<path fill="#5673AB" d="M1610.5,388.6H1555V372c-13.2,13.9-31.6,21.9-53.5,21.9c-40.6,0-67.7-28.8-67.7-72.6V214.3h55.2v95.1
		c0,20.5,12.2,34.4,29.9,34.4c21.9,0,36.1-14.9,36.1-48.6v-80.9h55.5V388.6z"/>
	<path fill="#5673AB" d="M1827.6,281.7v106.9h-55.2v-95.1c0-20.5-12.2-34.4-29.9-34.4c-21.9,0-36.1,14.9-36.1,48.6v80.9h-55.5V214.3
		h55.5V231c13.2-13.9,31.6-21.9,53.5-21.9C1800.6,209.1,1827.6,237.9,1827.6,281.7z"/>
	<path fill="#5673AB" d="M2048.9,388.6h-55.5v-13.9c-13.5,12.2-31.6,19.1-54.2,19.1c-46.2,0-85.1-37.1-85.1-92.3
		c0-54.9,38.9-92.4,85.1-92.4c22.6,0,40.6,6.9,54.2,19.1V121.3h55.5V388.6z M1993.4,301.5c0-26.7-20.1-45.1-42.7-45.1
		c-24.3,0-42,18.4-42,45.1c0,27.1,17.7,45.1,42,45.1C1973.2,346.6,1993.4,328.6,1993.4,301.5z"/>
	<path fill="#5673AB" d="M2381.7,279.6v109h-55.2v-97.2c0-19.8-12.8-32.3-29.2-32.3c-20.5,0-34,14.9-34,44.1v85.4h-55.5v-97.2
		c0-19.8-12.8-32.3-29.5-32.3c-20.1,0-33.3,14.9-33.3,44.1v85.4h-55.5V214.3h55.5v16c11.8-13.2,28.8-21.2,51.4-21.2
		c24.3,0,45.1,10.4,56.9,29.5c13.9-18,34.7-29.5,61.8-29.5C2352.1,209.1,2381.7,237.2,2381.7,279.6z"/>
	<path fill="#5673AB" d="M2578,278.2v110.4h-53.5v-12.8c-12.1,10.4-28.8,18-52.1,18c-38.9,0-64.9-22.6-64.9-56.9
		c0-34,26-56.2,72.6-56.2h44.4v-3.5c0-14.6-10.1-24.3-24.6-24.3c-16.7,0-26.4,6.6-29.2,21.9l-52.4-10.8
		c7.6-33.7,38.2-54.9,79.9-54.9C2547.1,209.1,2578,233.8,2578,278.2z M2524.5,319.9V316h-38.2c-13.9,0-22.6,7.3-22.6,18.1
		c0,11.1,9.7,18,24.3,18C2507.1,352.2,2524.5,339.3,2524.5,319.9z"/>
	<path fill="#5673AB" d="M2740.9,213.3l-2.4,55.5h-10.1c-38.9,0-60.1,20.1-60.1,65.3v54.5h-55.5V214.3h55.5v33.3
		c12.5-20.8,31.6-35.8,60.1-35.8C2733.3,211.9,2736.7,212.2,2740.9,213.3z"/>
	<path fill="#5673AB" d="M2893.1,388.6l-46.5-59.4l-26.4,29.9v29.5h-55.5V121.3h55.5v162.8l62.8-69.8h64.9l-64.2,72.9l77.8,101.4
		H2893.1z"/>
	<path fill="#5673AB" d="M3140,315.7h-127.8c4.5,20.8,18.8,33.7,37.5,33.7c12.8,0,27.8-3.1,37.1-20.1l49.3,10.1
		c-14.9,36.8-46.5,54.5-86.4,54.5c-50.3,0-92-37.1-92-92.3c0-54.9,41.7-92.4,92.4-92.4c49.3,0,88.9,35.4,89.9,92.4V315.7z
		 M3013.3,281.7h71.9c-5.2-18.8-19.1-27.4-35.1-27.4C3034.5,254.3,3018.5,264,3013.3,281.7z"/>
	<path fill="#5673AB" d="M3297.1,213.3l-2.4,55.5h-10.1c-38.9,0-60.1,20.1-60.1,65.3v54.5H3169V214.3h55.5v33.3
		c12.5-20.8,31.6-35.8,60.1-35.8C3289.4,211.9,3292.9,212.2,3297.1,213.3z"/>
</g>
</svg>
