<?xml version="1.0" encoding="utf-8"?>
<!-- Generator: Adobe Illustrator 18.0.0, SVG Export Plug-In . SVG Version: 6.00 Build 0)  -->
<!DOCTYPE svg PUBLIC "-//W3C//DTD SVG 1.1//EN" "http://www.w3.org/Graphics/SVG/1.1/DTD/svg11.dtd">
<svg version="1.1" id="Laag_1" xmlns="http://www.w3.org/2000/svg" xmlns:xlink="http://www.w3.org/1999/xlink" x="0px" y="0px"
	 width="400px" height="400px" viewBox="0 0 400 400" enable-background="new 0 0 400 400" xml:space="preserve">
<g>
	<path fill="#CED3FE" d="M210.7,116.5c-0.4-2.3-0.3-4.7-0.3-7.1c0-0.8-0.3-1.1-1.1-1.2c-5.1-1.1-10.2-2.3-15.4-3.5
		c-0.5-0.4-0.5-0.9-0.6-1.4c-0.7-4.5-1.3-9-1.9-13.5c-0.1-0.6-0.4-1.4,0.2-1.8c0.7-0.5,1.3,0.2,1.9,0.5c5.1,2.9,10.5,5.3,16.3,6.7
		c1.5,0.4,3.1,0.5,4.7,0.6c3.2,0.2,5.3-1.3,7-3.8c1.4-2.1,2.3-4.4,3-6.8c0.8-2.9,1.4-5.9,1.7-8.9c0.1-0.5-0.1-1.2,0.7-1.4
		c0.1,0.7,0.7,0.8,1.3,1c11.5,3.2,22.5,7.7,33,13.3c5.7,3,11.1,6.5,16.4,10.1c0.4,0.3,0.8,0.5,1.2,0.7c0.5,0.6,0.3,1.2,0.2,1.8
		c-0.8,4.9-1.7,9.8-2.6,14.7c-0.3,1.9-0.8,2.1-2.4,1c-4.2-3.1-9-4.6-14.1-4.6c-11.8-0.1-22.1,8.8-23.9,20.5
		c-2,13.3,7.4,25.6,20.2,27.4c14.2,2,25.4-7.5,27.5-20.1c1.8-10.4,3.7-20.7,5.4-31.1c0.1-0.4,0.1-0.7,0.4-1c0.5-0.2,0.8,0.2,1.1,0.4
		c6.4,5.7,12.4,11.6,17.9,18.1c6.5,7.6,12.2,15.7,17.2,24.3c1.4,2.4,2.6,4.8,3.9,7.2c-0.2,0.8-0.8,1.5-1.4,1.8
		c-2.3,1.3-4.7,2.2-7.4,2.4c-0.8-0.5-0.6-1.4-0.7-2.2c-0.1-0.6,0.1-1.3-0.1-2c-3.6,2.1-7.2,4.1-10.8,6c-6.3,3.4-12.7,6.5-19.5,8.9
		c-6.7,2.4-13.5,4.8-20.6,5.9c-8.8,1.3-17.4,1.2-25.8-2.2c-8.5-3.4-14.7-9.3-19.4-16.9c-5-8-8-16.8-10.4-25.9
		c-1.2-4.7-2-9.4-2.9-14.2C210.6,119,210.3,117.8,210.7,116.5z"/>
	<path fill="#7296FE" d="M50.5,336.8c-1.9,0-3.9-0.1-5.8-0.1c-1,0-1.3-0.2-1-1.3c0.9-4.3,1.8-8.5,2.6-12.8c0.1-0.4,0.1-0.7,0.1-1.1
		c-0.3-1.7,0.4-3.2,0.8-4.8c3-13.4,6.4-26.8,10.4-40c4.6-15.3,9.9-30.3,16-45.1c4.7-11.4,9.8-22.5,15.5-33.4
		c9-17.3,19.2-33.9,30.9-49.6c6.6-8.9,13.6-17.4,20.9-25.6c6-6.8,12.5-13.1,18.9-19.5c1.5-1.5,3.2-2.8,4.6-4.4c0.9-0.9,1.9-1,3.1-1
		c4.2,0.7,8.2,1.8,12.3,2.7c4.8,1.1,9.6,2.1,14.3,3.3c5.1,1,10.1,2.3,15.1,3.4c1.2,0.3,1.7,0.9,1.7,2.1c0,2.2,0.1,4.4,0.2,6.6
		c-0.3,0.8-0.3,1.7-0.2,2.5c0.5,4.7,0.5,9.5,0.9,14.2c0.5,7.2,1.3,14.4,2.3,21.6c2.3,15.9,5.7,31.6,9.9,47.1
		c1.8,6.8,3.7,13.5,5.7,20.2c1.9,6.9,4,13.7,6,20.5c3.4,11.7,6.7,23.4,9.5,35.2c0.5,2,0.1,2.4-2,2.5c-2,0-4-0.1-6,0.1
		c-3.4-0.2-6.9,0-10.3-0.1c-0.5,0.1-1.1,0.1-1.6,0.1c-22.5,0-45.1,0-67.6,0c-1,0-2,0.1-3-0.3c-0.5-0.3-0.6-0.8-0.7-1.4
		c-2.4-9.1-3.8-18.5-4.7-27.9c-0.7-7.7-1.1-15.5-1.4-23.3c-0.3-6.7-0.3-13.5-0.2-20.2c0.2-8.1,0.5-16.3,0.9-24.4
		c0.1-1.2,0.3-2.4,0.6-3.5c-9,33-14.1,66.6-17.1,100.5c-0.1,3.4-0.5,6.9-0.7,10.3c-0.3,3.8-0.5,7.7-0.8,11.5
		c-0.4,5.5-0.7,11-0.9,16.5c-0.2,4.4-0.6,8.9-0.4,13.3c0,1,0,2-0.2,3c-0.4,2.2-0.8,2.6-3,2.7c-2,0-4,0.1-6,0c-7.3,0.1-14.7,0-22,0
		c-8.3,0-16.6,0.1-24.9,0c-6.9,0.1-13.8,0-20.6,0C51.7,337.3,51,337.3,50.5,336.8z"/>
	<path fill="#CED3FE" d="M167.1,98.6c-1.2-0.1-2,0.4-2.9,1.2c-5.9,5.4-11.6,11-17.1,16.8c-8.1,8.5-15.8,17.5-22.9,26.9
		c-9,11.7-17.2,23.9-24.6,36.5c-8.9,15.1-16.8,30.8-23.7,47c-5.2,12.1-9.7,24.3-13.9,36.8c-3.7,11.1-7,22.4-9.9,33.7
		c-2,7.8-3.9,15.5-5.5,23.4c0,0.2-0.2,0.4-0.3,0.6c-2-2.3-3.3-5-4.8-7.6c-5.6-9.9-10.3-20.3-13.7-31.1c-2.5-7.8-4.4-15.8-5.7-24
		c-1.1-7-1.6-14-2-21.1c-0.3-4.8,0-9.6,0.2-14.4c0.5-10,2-19.9,4.5-29.6c3.2-12.8,7.8-25.1,14-36.8c5-9.4,10.8-18.3,17.5-26.5
		c4.7-5.8,9.7-11.3,15.2-16.4c8.4-7.8,17.4-14.8,27.3-20.8c5.9-3.6,12.1-6.8,18.4-9.6c0.6-0.3,1.1-0.6,1.6-0.9
		c0.5-0.5,1.1-0.2,1.7-0.1c4.3,0.9,8.6,1.4,12.9,0.1c1.5-0.4,2.8,0.2,4,0.9c3,1.9,6.3,3.3,9.9,3.7c8,0.8,15.7,0,22.1-5.5
		c0.4-0.3,0.7-0.7,1.3-0.4c0.4,0.7,0.2,1.3,0,2c-1,4.5-2,9.1-2.9,13.6C167.7,97.7,167.6,98.3,167.1,98.6z"/>
	<path fill="#CED3FE" d="M237.4,280.2c2-0.6,4-0.2,6-0.2c1.4,0,1.8-0.1,1.5-1.8c-3.2-13.8-7.1-27.5-11.2-41
		c-1.4-4.6-2.7-9.2-4.1-13.8c-0.1-0.3-0.4-0.7-0.1-1c0.6-0.4,1.2-0.1,1.8,0.1c8.4,3,17.1,4.7,26,5.5c5.6,0.5,11.2,0.8,16.8,0.6
		c13.9-0.6,27.7-2.2,41.1-6.6c5.8-1.9,5.2-2.2,5.4-7.2c0.5-9.2,0.1-18.4,0.3-27.6c0-0.8,0-1.7,0.1-2.5c0.1-0.8,0.7-1.2,1.3-1.5
		c4.1-2.6,8.2-5.2,12.3-7.8c0.6-0.4,1.2-1,2-0.7c0.9,2.7,1.8,5.4,2.7,8.1c3,8.9,4.9,18.1,6.4,27.3c1.6,10.4,1.9,20.8,1.4,31.3
		c-0.6,13.2-2.8,26.1-6.7,38.8c-3,9.9-6.8,19.4-11.6,28.6c-5,9.6-10.9,18.5-17.7,26.9c-5.2,6.4-10.8,12.4-16.8,17.9
		c-8.2,7.6-17.2,14.3-26.9,20c-3.6,2.1-7.1,4.1-10.9,5.9c-0.9-1.5-0.8-3.2-1-4.8c-3.3-24.9-7.6-49.6-13.4-74
		c-1.5-6.1-3-12.2-4.6-18.3C237.2,281.6,236.9,280.9,237.4,280.2z"/>
	<path fill="#88C4CB" d="M154.4,279.9c23.4,0,46.9,0,70.3,0c0.7,0,1.5,0,2.2,0c0.6,0.7,0.3,1.4,0.2,2.1
		c-3.2,16.8-6.7,33.5-10.4,50.1c-3.1,13.9-6.5,27.8-10,41.6c-1.7,6.7-3.5,13.3-5.3,20c-0.2,0.7-0.3,1.4-0.9,1.8
		c-4.2,0.7-8.4,0.8-12.6,0.9c-7.5,0.3-15-0.1-22.5-0.9c-16.1-1.8-31.6-5.9-46.5-12.3c-0.4-0.2-0.7-0.4-1.1-0.6
		c-0.6-1.8-0.2-3.6-0.1-5.3c0.2-2.5,0.4-5.1,0.5-7.6c0.2-5.8,0.6-11.5,0.8-17.3c0.2-4.6,0-9.3,0.6-14c0.1-0.6,0.1-1.2,0.5-1.6
		c2.2,0,4.3,0,6.5,0c1.1,0,1.7-0.3,1.8-1.6c0.1-1.3,0.2-2.5,0.2-3.8c0.2-6.7,0.4-13.4,0.7-20.1c0.2-5.3,0.6-10.5,0.9-15.8
		c0.4-5.2,0.8-10.4,1.3-15.6c0.6-0.6,1.3-0.6,2.1-0.6c6.2,0,12.5,0,18.7,0C153.1,279.4,153.8,279.3,154.4,279.9z"/>
	<path fill="#88C4CB" d="M170.6,81.5c-6.3,6-14.1,7-22.2,6.6c-4.2-0.2-8.1-1.9-11.6-4.2c-1.2-0.8-2.4-1-3.7-0.6
		c-4.8,1.4-9.5,0.6-14.2-0.6c-4.8-1.5-8.7-4.3-11.7-8.4c-4-5.5-5.1-11.3-2.4-17.6c0.6-1.3,1.1-2.6,1.6-4c0.6-1.7,0.1-3.1-1-4.4
		c-0.1-0.2-0.3-0.3-0.4-0.5c-8.1-6.5-8.4-14.9-5.5-23.8c2-6.2,5.6-11.5,10.7-15.6c6.7-5.3,14.3-6.4,22.4-4.1
		c5.3,1.5,9.9,4.3,14.2,7.6c1.6,1.2,3.3,2.3,5.1,3.2c3.8,2,7.4,1.5,10.7-1c2.2-1.6,4.2-3.5,6.5-5.1c5.5-4,11.7-5.6,18.5-5
		c8.5,0.7,15.7,4.4,22,10c7.1,6.4,12.7,13.8,14.9,23.3c0.2,1,0.8,2,0.2,3c-0.8,0.4-1.2-0.2-1.5-0.8c-2.5-5-7.2-6.6-12.1-7.9
		c-1.3-0.4-2.6-0.5-3.9-0.4c-0.6,0-1.3,0.1-1.3,0.9c-0.1,2.8-1.7,5-2.7,7.4c-1.5,3.4-2.9,6.8-4.6,10.1c-1.8,3.3-3.8,6.5-7.2,8.5
		c-2.9,1.8-5.7,1.4-7.9-1.2c-1.4-1.6-2.5-3.4-3.8-5.1c-3.2-4.1-7.3-3.9-10.1,0.4c-0.6,0.9-1,1.8-1.4,2.9c-1.3,4.2-0.2,7,3.6,9.2
		c1,0.6,2.1,0.9,3,1.7c0.5,0.5,1.1,1,0.9,1.7c-0.2,0.8-0.9,1-1.6,1c-1,0-0.9,0.6-0.8,1.3c0.2,2.7,0.5,5.4-0.4,8
		C172.3,79.4,172,80.8,170.6,81.5z"/>
	<path fill="#69A0AB" d="M200.5,395.6c1.3-5,2.6-10.1,3.9-15.1c2.7-10.7,5.5-21.3,8-32c4.5-18.8,8.6-37.7,12.3-56.7
		c0.8-3.9,1.6-7.8,2.2-11.8c3.1,0,6.1,0,9.2,0c0.4,0,0.8,0.2,1.2,0.3c1.5,6,3.1,11.9,4.6,18c3.6,14.9,6.6,30,9.2,45.1
		c1.7,10,3.2,20,4.6,30c0.3,2,0.5,4.1,0.7,6.1c-9.9,5.1-20.3,8.9-31,11.7c-7.7,2.1-15.6,3.4-23.5,4.4
		C201.5,395.6,201,395.6,200.5,395.6z"/>
	<path fill="#717CAF" d="M226.9,74.8c-0.5,3.3-0.9,6.7-1.9,9.9c-0.6,2.2-1.3,4.3-2.5,6.3c-3.1,5.4-5.6,5.7-10.8,4.9
		c-6.8-1-12.9-4-18.8-7.3c-0.3-0.2-0.5-0.3-0.8-0.5c-0.1,0-0.2,0-0.4-0.1c0.7,5.5,1.5,11.1,2.2,16.6c-8.5-1.9-17-3.9-25.5-5.8
		c-0.5-0.1-0.9-0.1-1.4-0.2c1.2-5.5,2.3-10.9,3.5-16.4c0.1-0.3,0.1-0.5,0.1-0.8c2.6-3.6,2.6-7.7,2-11.8c-0.1-0.8-0.3-1.7,1.1-1.3
		c0.5,0.2,1.2,0.2,1.6-0.4c0.4-0.8-0.4-1.1-0.8-1.6c-0.7-0.8-1.7-1-2.6-1.5c-1.9-1.1-3.5-2.2-4.4-4.3c-1.4-3.5,1.2-11.4,6.6-12.1
		c2.5-0.3,4.2,1.1,5.6,2.9c1.1,1.4,2,3,3.2,4.3c3.4,4.1,6.4,4.2,10.3,0.5c3.2-3.1,5.1-7,6.9-10.9c1.4-3,2.7-6.1,4.1-9.1
		c0.6-1.3,1.2-2.6,1.1-4.1c-0.1-1.3,0.9-1.3,1.7-1.3c4-0.1,7.6,1.2,11,3.1c2.4,1.3,4.4,2.9,5.4,5.5c0.2,0.5,0.6,0.9,1.2,0.9
		c2.4,9.7,2.9,19.5,2.6,29.4C227.1,71.5,227,73.1,226.9,74.8z"/>
	<g>
		
			<circle fill="none" stroke="#7397FF" stroke-width="12.253" stroke-linecap="round" stroke-linejoin="round" stroke-miterlimit="10" cx="260.1" cy="136.8" r="18.4"/>
		
			<circle fill="none" stroke="#7397FF" stroke-width="12.253" stroke-linecap="round" stroke-linejoin="round" stroke-miterlimit="10" cx="349.4" cy="136" r="18.4"/>
		
			<path fill="none" stroke="#7397FF" stroke-width="12.253" stroke-linecap="round" stroke-linejoin="round" stroke-miterlimit="10" d="
			M367.6,138.8l10.8-61.5c0.9-5.1-0.7-10.3-4.4-14.2s-8.9-5.9-14.3-5.6l-53.3-0.9c-8,0.5-14.6,6.1-15.9,13.7L278.2,140"/>
	</g>
	<path fill="#CED3FE" d="M120.1,336.8c-0.2,7-0.4,14-0.7,21c-0.2,5.8-0.5,11.7-1,17.5c-0.2,2.4,0,4.9-0.6,7.2
		c-4.5-1.6-8.6-3.8-12.7-6.1c-6.9-3.7-13.4-7.9-19.7-12.7c-4.4-3.3-8.7-6.9-12.8-10.6c-0.3-0.2-0.4-0.8-1-0.5
		c-0.6,0-0.6-0.5-0.7-0.9c-1.1-4.7-1.1-9.4,1.2-13.8c0.2-0.5,0.5-0.9,1-1.2c10.4,0,20.7,0,31.1,0
		C109.5,336.7,114.8,336.8,120.1,336.8z"/>
	<path fill="#717DAF" d="M73.2,336.8c-1.5,3.4-2.8,6.8-2.3,10.7c0.2,1.8,0.4,3.5,0.9,5.2c1.2,5.1,3.4,9.9,5.6,14.6
		c0.5,1,0.9,2,1.4,3c0.5,0.9,0.2,1.2-0.7,1.5c-2.5,0.8-4.8,0.4-6.8-1.5c-1.3-1.3-2.6-2.7-3.9-4c-3.5-3.5-6.7-4.2-11.2-2.2
		c-4.2,1.8-8,4.3-12,6.5c-4,2.2-8,4.2-12.7,4.8c-4.9,0.6-9.3-0.9-13.3-3.6c-2-1.4-2.4-4-1.1-6.1c0.7-1.1,1.7-1.9,2.7-2.6
		c9.3-6.5,18.2-13.5,26.4-21.4c1.6-1.5,3.1-3.1,4.2-4.9C58,336.8,65.6,336.8,73.2,336.8z"/>
	<path fill="#717DAF" d="M333.3,154.8c2.8,1.9,5.6,3.8,8.9,4.7c8.9,2.5,16.9,0.7,23.8-5.5c2.2-2,3.7-4.4,5.4-6.8
		c1-0.4,2-1.3,3.1-0.4c1.1,0.9,0.9,2.2,0.6,3.5c-2.1,8-7.4,13.2-14.6,16.7c-5.9,2.8-12.3,4.2-18.6,5.4c-1.9,0.4-3.8,0.8-5.3,2.2
		c-5.1,3.2-10.2,6.4-15.3,9.6c-1-0.4-0.7-1.3-0.7-2c0-4,0-8,0-12.1c0-1.8,0.1-3.7-0.2-5.5c-0.1-0.7-0.2-1.4,0.6-1.8
		c1.9-0.6,3.9-1.3,5.8-1.9c1.3-0.4,2-1.5,2.8-2.4C330.5,156.9,331.7,155.6,333.3,154.8z"/>
	<path fill="#5A7FF2" d="M321,162.7c-0.7,1.2,0.1,2.5,0.1,3.7c-0.1,5.3,0,10.7,0,16c0,0.6-0.2,1.2,0.2,1.7c0,7.8,0.1,15.6,0,23.4
		c0,3.3-0.2,6.7-0.3,10c0,1.9-0.8,3-2.6,3.7c-5.3,2.1-10.7,3.5-16.3,4.6c-8.1,1.6-16.3,2.5-24.5,3c-15.1,0.8-30-0.5-44.5-5.2
		c-1.3-0.4-2.5-0.9-3.7-1.3c-1.5-3.1-2.1-6.4-3-9.6c-2.4-8.2-4.6-16.5-6.5-24.9c-2.1-9-4-18.1-5.4-27.2c-1-6.6-1.9-13.2-2.5-19.8
		c-0.4-4-0.7-8.1-1-12.1c-0.2-3.6-0.3-7.2-0.6-10.7c0-0.5-0.2-1,0.3-1.3c0.8,6.2,2,12.3,3.6,18.3c2.5,9.9,6,19.5,12,28
		c6.7,9.4,15.6,15.1,27,16.6c9.1,1.2,18-0.3,26.7-2.9c14-4.2,27.1-10.5,39.6-18c0.3-0.2,0.6-0.5,1.1-0.4
		C321,159.6,320.4,161.2,321,162.7z"/>
	<path fill="#6786E4" d="M154.4,279.9c-7.6,0-15.3,0-22.9,0c0.4-3.9,0.8-7.8,1.2-11.8c0.3-3.1,0.6-6.3,1-9.4
		c0.6-4.7,1.2-9.4,1.8-14.1c0.6-5,1.5-10,2.3-15c1.2-7.7,2.7-15.4,4.3-23.1c1.8-8.8,4.1-17.5,6.3-26.3c0.2-0.6,0.4-1.3,0.9-1.9
		c-0.2,3.2-0.3,6.3-0.5,9.5c0,0.3-0.1,0.6-0.1,0.9c-0.1,3.9-0.1,7.8-0.3,11.7c-0.4,7.2-0.4,14.5-0.3,21.7c0.1,5.9,0.2,11.8,0.7,17.7
		c0.5,6.6,1.1,13.2,1.9,19.8c0.8,6.1,1.9,12.3,3.6,18.3C154.4,278.7,154.4,279.3,154.4,279.9z"/>
	<path fill="#717DAF" d="M342.4,146.1c1.6-1.4,3.2-2.7,4.9-3.7c3-1.9,6.1-0.4,6.5,3.2c0.1,0.6,0,1.2,0,1.7c-0.4,2.8-1.9,4.3-4.4,4.2
		c-1.3,0-2.3-0.7-2.7-1.8c-0.6-1.6-1.8-2.3-3.3-2.9C343,146.6,342.7,146.3,342.4,146.1z"/>
</g>
<path fill="#CED3FE" d="M247.6,136.8c-0.2-6.4,5.8-12.3,12.4-12.1c6.8,0.2,12.1,5.5,12.1,12.3c0,6.8-5.5,12.3-12.3,12.2
	C253,149.2,247.6,143.6,247.6,136.8z"/>
</svg>
