<?xml version="1.0" encoding="utf-8"?>
<!-- Generator: Adobe Illustrator 18.0.0, SVG Export Plug-In . SVG Version: 6.00 Build 0)  -->
<!DOCTYPE svg PUBLIC "-//W3C//DTD SVG 1.1//EN" "http://www.w3.org/Graphics/SVG/1.1/DTD/svg11.dtd">
<svg version="1.1" id="Laag_1" xmlns="http://www.w3.org/2000/svg" xmlns:xlink="http://www.w3.org/1999/xlink" x="0px" y="0px"
	 width="1500px" height="1500px" viewBox="0 0 1500 1500" enable-background="new 0 0 1500 1500" xml:space="preserve">
<g>
	<g>
		<linearGradient id="SVGID_1_" gradientUnits="userSpaceOnUse" x1="52.6661" y1="797.3897" x2="111.632" y2="738.4238">
			<stop  offset="0" style="stop-color:#FFFFFF"/>
			<stop  offset="0" style="stop-color:#CFD4FF"/>
			<stop  offset="0.3246" style="stop-color:#D2D7FF"/>
			<stop  offset="0.5853" style="stop-color:#DCE0FF"/>
			<stop  offset="0.823" style="stop-color:#EDEFFF"/>
			<stop  offset="1" style="stop-color:#FFFFFF"/>
		</linearGradient>
		<path fill="url(#SVGID_1_)" d="M122.6,801c-5,1.5-10,3.1-15.2,4c-5.1,0.9-10.3,1.2-15.5,1c-9.9-0.3-19.7-2.7-28.8-6.7
			c-16.7-7.5-30.5-20.4-41.6-34.7c-1.5-1.9-2.9-3.9-4.3-5.8c-1.5-2-3.3-4.2-4.4-6.4c-0.8-1.5,3.5-3.3,4.5-4c2.4-1.5,4.8-3.1,7.2-4.6
			c9.2-5.9,18.4-11.9,27.5-17.9c0.5-0.3,1.7-1.5,2.3-0.8c0.7,0.7,1.2,1.7,1.7,2.5c1.4,2.1,2.9,4.1,4.4,6.1c2.9,3.8,6.1,7.5,9.6,10.8
			c6.6,6.3,14.9,11.9,24.3,11.9c1.3,0,2.5-0.1,3.8-0.3c0.6-0.1,1.3-0.2,1.9-0.4c0.9-0.2,1.4,0.3,2.2,0.8c2.5,1.6,4.9,3.2,7.5,4.6
			c4.9,2.8,9.9,5.5,15,7.9c4.9,2.4,9.9,4.5,15,6.4c2.6,0.9,5.2,1.7,7.8,2.6c1.3,0.4,2.5,0.9,3.7,1.5c0.9,0.4,2.6,1.1,3.1,1.9
			c-4.8,4.2-9.9,8-15.3,11.3c-2.6,1.6-5.3,3.1-8.1,4.4c-1.4,0.7-2.8,1.3-4.2,2C125.6,799.7,123.7,800,122.6,801"/>
		<linearGradient id="SVGID_2_" gradientUnits="userSpaceOnUse" x1="184.1609" y1="764.3608" x2="242.6346" y2="705.8871">
			<stop  offset="0" style="stop-color:#FFFFFF"/>
			<stop  offset="0.177" style="stop-color:#EDEFFF"/>
			<stop  offset="0.4147" style="stop-color:#DCE0FF"/>
			<stop  offset="0.6754" style="stop-color:#D2D7FF"/>
			<stop  offset="1" style="stop-color:#CFD4FF"/>
		</linearGradient>
		<path fill="url(#SVGID_2_)" d="M173.6,701.9c5.2-1.5,10.3-3.1,15.6-3.8c5.2-0.8,10.4-1,15.6-0.8c10.2,0.6,19.9,3.2,29.1,7.6
			c17.8,8.4,32.1,23.1,43.5,38.9c1.4,1.9,2.7,3.8,4,5.8c0.4,0.6,1.4,1.6,0.8,2.4c-0.8,1-2.3,1.6-3.4,2.3c-4.6,3-9.2,5.9-13.7,8.9
			c-4.6,3-9.2,5.9-13.7,8.9c-2.2,1.4-4.4,2.9-6.6,4.3c-1,0.7-2,1.5-3.1,2c-1,0.4-1.5-0.9-1.9-1.6c-5.3-7.8-11.2-15.3-18.5-21.3
			c-7.3-5.9-16.7-10.4-26.3-7.8c-8.5-5.7-17.5-10.8-26.8-15.1c-4.7-2.1-9.5-4-14.4-5.7c-4.3-1.5-9.1-2.6-12.6-5.6
			c4.7-4.1,9.7-7.8,15.1-11C161.9,707.1,167.7,704.5,173.6,701.9"/>
	</g>
	<path fill="#7396FF" d="M155,691c0.5,0.1,1.1,0.3,1.6,0.4c0.1,0,0.2,0,0.2,0.1c0.5,0.1,1,0.2,1.4,0.4
		C157.2,691.6,156.1,691.3,155,691z"/>
	<g>
		<path fill="#7396FF" d="M173.7,735.3c-4.6-2.3-9.3-4.4-14.1-6.2c-4.4-1.6-8.9-3.1-13.3-5c-7.3-3.3-15-9.3-13.8-18.3
			c0.7-5,3.5-8.9,7.3-11.4c2.5-1.7,5.5-2.8,8.5-3.3c2.7-0.4,5.5-0.3,8.2,0.3c-0.5-0.1-1.1-0.3-1.6-0.4c1.1,0.3,2.2,0.5,3.3,0.8
			c-0.5-0.1-1-0.2-1.4-0.4c5,1.3,9.7,3.7,13.5,7.1c0.9,0.8,1.8,1.7,2.6,2.6c0.8,0.8,0.8,0.8,1.9,0.4c0.8-0.2,1.6-0.5,2.4-0.7
			c3.1-0.9,6.3-1.7,9.5-2.3c6.3-1.2,12.7-1.8,19-1.1c6.3,0.6,12.5,2.2,18.7,3.4c-2.3-19.6-15.1-35.7-31.6-46.3
			c-9.8-6.2-20.8-10.5-31.7-12.3c-6.5-1.1-13.3-1.3-20-0.7c-25,2.3-49.5,16.1-59.9,39.6c-0.8,1.9-1.6,3.8-2.2,5.8
			c-3.7,9.5-4.8,19.4-3.5,29.5c1.1,8.6,4.9,16.6,10.1,23.5c5.3,7.1,11.8,13.5,19.4,18.1c8.8,5.3,17.8,10.3,27.3,14.3
			c4.1,1.8,8.4,3.2,12.6,4.8c3.3,1.2,6.8,2.3,9.7,4.3c5.7,3.8,10.4,10.4,9.1,17.5c-1.2,6.6-7.3,11.7-13.7,13.2
			c-0.7,0.2-1.4,0.3-2.1,0.4c-7.9,0.9-15.9-2.8-21.6-7.9c-1.3-1.1-2.4-2.3-3.5-3.6c-2.4,0.7-4.9,1.4-7.4,2c-4.6,1.1-9.3,2-14,2.4
			c-9.7,1-19.6,0.1-29-2.7c4,19.8,16.4,36.2,33.1,46.6c4.7,2.9,9.7,5.4,15,7.4c23.7,8.6,51.2,6.5,72.3-7.8
			c12.5-8.5,21.7-20.9,26.1-35.4c4.5-14.8,3.9-31.5-4.3-45C205.1,752.9,189.7,743.3,173.7,735.3z"/>
		
			<linearGradient id="SVGID_3_" gradientUnits="userSpaceOnUse" x1="940.4551" y1="727.5402" x2="959.9901" y2="781.2122" gradientTransform="matrix(-1 0 0 -1 1063.9576 1570.3206)">
			<stop  offset="0" style="stop-color:#7396FF;stop-opacity:0"/>
			<stop  offset="0.2163" style="stop-color:#6C91FA;stop-opacity:0.2163"/>
			<stop  offset="0.5418" style="stop-color:#5784EC;stop-opacity:0.5418"/>
			<stop  offset="0.9344" style="stop-color:#356FD6;stop-opacity:0.9344"/>
			<stop  offset="1" style="stop-color:#2F6BD2"/>
		</linearGradient>
		<path fill="url(#SVGID_3_)" d="M130.3,834.1c5.4-5.3,10.8-10.5,15.4-16.4c1.4-1.8,2.8-3.7,4.1-5.6c-0.7,0.2-1.4,0.3-2.1,0.4
			c-7.9,0.9-15.9-2.8-21.6-7.9c-1.3-1.1-2.4-2.3-3.5-3.6c-2.4,0.7-4.9,1.4-7.4,2c-4.6,1.1-9.3,2-14,2.4c-9.7,1-19.6,0.1-29-2.7
			c4,19.8,16.4,36.2,33.1,46.6c3.2-1.3,6.4-2.9,9.5-4.6C120.3,841.7,125.3,837.9,130.3,834.1z"/>
	</g>
	<linearGradient id="SVGID_4_" gradientUnits="userSpaceOnUse" x1="174.4467" y1="661.1996" x2="193.0144" y2="712.2139">
		<stop  offset="0" style="stop-color:#7396FF;stop-opacity:0"/>
		<stop  offset="0.2207" style="stop-color:#6B91F9;stop-opacity:0.2207"/>
		<stop  offset="0.5705" style="stop-color:#5482EA;stop-opacity:0.5705"/>
		<stop  offset="1" style="stop-color:#2F6BD2"/>
	</linearGradient>
	<path fill="url(#SVGID_4_)" d="M156.5,691.3c-0.5-0.1-1.1-0.3-1.6-0.4c1.1,0.3,2.2,0.5,3.3,0.8c-0.5-0.1-1-0.2-1.4-0.4
		c5,1.3,9.7,3.7,13.5,7.1c0.9,0.8,1.8,1.7,2.6,2.6c0.8,0.8,0.8,0.8,1.9,0.4c0.8-0.2,1.6-0.5,2.4-0.7c3.1-0.9,6.3-1.7,9.5-2.3
		c6.3-1.2,12.7-1.8,19-1.1c6.3,0.6,12.5,2.2,18.7,3.4c-2.3-19.6-15.1-35.7-31.6-46.3c-3.7,1.4-7.3,3.1-10.7,5
		c-5.2,2.9-10,6.5-14.7,10.1c-5.1,5-10.2,9.9-14.7,15.6c-1.5,1.9-2.9,3.8-4.2,5.8C151.1,690.6,153.9,690.7,156.5,691.3z"/>
</g>
<g>
	<path fill="#7397FF" d="M415,758.1c6.8,4.8,10.2,11.7,10.2,20.6c0,4.1-1,7.9-2.9,11.5c-1.9,3.6-4.5,6.7-7.9,9.4
		c-3.3,2.7-7.2,4.9-11.7,6.4c-4.4,1.5-9.2,2.3-14.3,2.3c-3.8,0-7.6-0.5-11.2-1.5c-3.6-1-7-2.4-10.1-4.1c-3.1-1.7-5.8-3.8-8.1-6.2
		c-2.3-2.4-4-5.1-5.1-8c2.8-1.4,6-2.9,9.4-4.5c3.5-1.7,6.5-3.2,9.1-4.5c1.1,1.9,2.8,3.6,5.2,5.1c2.4,1.5,5.6,2.3,9.6,2.3
		c4.2,0,7.3-1,9.3-3c2-2,3-3.8,3-5.5c0-1.2-0.7-2.4-2-3.4c-1.4-1.1-2.9-1.9-4.6-2.5c-2.5-1-4.5-1.5-6.1-1.6c-1.6-0.1-3.5-0.4-5.6-1
		c-6.7-1.6-11.8-3.7-15.3-6.4c-3.5-2.6-6.1-5.3-7.7-8c-1.6-2.7-2.5-5.3-2.7-7.8c-0.2-2.5-0.3-4.5-0.3-5.9c0-3.9,0.9-7.7,2.6-11.3
		c1.7-3.6,4.1-6.7,7.1-9.4c3-2.6,6.6-4.8,10.6-6.4c4-1.6,8.3-2.4,12.9-2.4c3.8,0,7.5,0.6,10.9,1.7c3.5,1.1,6.6,2.7,9.5,4.6
		c2.8,2,5.3,4.3,7.3,7c2,2.7,3.5,5.8,4.5,9.1l-19.8,6.7c-0.7-2.2-2.3-4-4.5-5.4c-2.3-1.4-4.7-2-7.3-2c-2.6,0-4.7,0.9-6.3,2.6
		c-1.6,1.7-2.4,3.5-2.4,5.2c0,2.1,0.8,3.7,2.3,4.9c1.6,1.2,3.2,2,5.1,2.5c1.4,0.2,2.7,0.5,4,0.6c1.3,0.2,2.6,0.4,3.8,0.7
		c4.3,1,8.1,2.1,11.2,3.3C409.9,754.9,412.6,756.4,415,758.1"/>
	<path fill="#7397FF" d="M483.9,711.8c6.5,0,12.7,1.3,18.5,3.8c5.8,2.5,10.9,6,15.2,10.4c4.3,4.4,7.7,9.5,10.3,15.4
		c2.5,5.9,3.8,12.1,3.8,18.8c0,6.7-1.3,12.9-3.8,18.8c-2.5,5.9-6,11-10.3,15.4c-4.3,4.4-9.4,7.8-15.2,10.4c-5.8,2.5-12,3.8-18.5,3.8
		c-6.7,0-12.9-1.3-18.7-3.8c-5.8-2.5-10.9-6-15.2-10.4c-4.3-4.4-7.8-9.5-10.3-15.4c-2.5-5.9-3.8-12.1-3.8-18.8
		c0-6.7,1.3-12.9,3.8-18.8c2.5-5.9,6-11,10.3-15.4c4.3-4.4,9.4-7.8,15.2-10.4C471,713,477.2,711.8,483.9,711.8 M483.9,786.1
		c3.1,0,6-0.6,8.6-1.9c2.7-1.2,5-2.9,7-5.1c2-2.2,3.6-4.8,4.8-7.8c1.2-3,1.8-6.4,1.8-10.1c0-3.7-0.6-7.2-1.8-10.4
		c-1.2-3.2-2.8-6-4.8-8.4c-2-2.4-4.4-4.3-7-5.8c-2.7-1.4-5.5-2.1-8.6-2.1c-3.1,0-6,0.7-8.7,2.1c-2.7,1.4-5.1,3.3-7.1,5.8
		c-2,2.4-3.6,5.2-4.8,8.4c-1.2,3.2-1.8,6.7-1.8,10.4c0,3.7,0.6,7.1,1.8,10.1c1.2,3,2.8,5.6,4.8,7.8c2,2.2,4.4,3.9,7.1,5.1
		C477.9,785.5,480.8,786.1,483.9,786.1"/>
	<path fill="#7397FF" d="M603.2,714.4h25.6v91.9h-21.9l-3.7-7c-3,2.1-6.3,3.8-10.1,5.1c-3.8,1.3-7.8,2-12.1,2
		c-3.3,0-7.1-0.5-11.4-1.5c-4.3-1-8.2-2.8-12-5.6c-3.7-2.7-6.8-6.5-9.4-11.3c-2.5-4.8-3.8-11.1-3.8-18.7v-54.9H570v53.8
		c0,2.8,0.5,5.2,1.4,7.2c0.9,2,2.2,3.5,3.7,4.7c1.6,1.2,3.3,2,5.3,2.6c2,0.5,4,0.8,6.1,0.8c1.6,0,3.4-0.3,5.3-0.8
		c1.9-0.6,3.7-1.4,5.4-2.7c1.7-1.3,3.1-2.8,4.2-4.8c1.1-2,1.7-4.3,1.7-7V714.4z"/>
	<path fill="#7397FF" d="M693.4,714.4c3.4,0,7.3,0.5,11.4,1.5c4.2,1,8.1,2.8,11.8,5.6c3.7,2.7,6.8,6.5,9.3,11.3
		c2.5,4.8,3.8,11.1,3.8,18.7v54.9h-25.6v-53.8c0-2.8-0.5-5.2-1.4-7.2c-0.9-2-2.2-3.5-3.7-4.7c-1.5-1.2-3.3-2-5.3-2.6
		c-2-0.6-4-0.8-5.9-0.8c-1.6,0-3.4,0.3-5.3,0.8c-1.9,0.5-3.7,1.4-5.4,2.7c-1.7,1.2-3,2.8-4.2,4.8c-1.1,2-1.7,4.3-1.7,7v53.8h-25.6
		v-91.9h21.9l3.7,7c3-2.1,6.3-3.8,10-5.1C685.1,715,689.1,714.4,693.4,714.4"/>
	<path fill="#7397FF" d="M838.6,671v135.3h-21.9l-3.7-8c-2.8,3-6.8,5.4-11.8,7.3c-5,1.9-10.2,2.9-15.7,2.9c-6.6,0-12.6-1.3-18.2-3.8
		c-5.6-2.5-10.3-6-14.4-10.4c-4-4.4-7.2-9.5-9.4-15.4c-2.3-5.9-3.4-12.1-3.4-18.8c0-6.7,1.1-12.9,3.4-18.8c2.3-5.9,5.4-11,9.4-15.4
		c4-4.4,8.8-7.8,14.4-10.4c5.6-2.5,11.6-3.8,18.2-3.8c5.8,0,11,0.7,15.5,2c4.5,1.4,8.5,3.6,12,6.9V671H838.6z M813,760.5
		c0-4.8-0.6-8.9-1.8-12.1c-1.2-3.3-3-5.9-5.2-8c-2.2-2-4.8-3.5-7.7-4.4c-2.9-0.9-6-1.4-9.4-1.4c-3.3,0-6.5,0.7-9.4,2.1
		c-2.9,1.4-5.4,3.2-7.6,5.5c-2.2,2.3-3.9,5-5.1,8.2c-1.2,3.1-1.9,6.4-1.9,9.9c0,3.6,0.6,6.9,1.9,10c1.2,3.1,2.9,5.8,5.1,8.1
		c2.2,2.3,4.7,4.1,7.6,5.5c2.9,1.4,6,2,9.4,2c6.7,0,12.3-2.1,17-6.2C810.5,775.4,812.9,769,813,760.5"/>
	<path fill="#7397FF" d="M957.5,714.4c3.3,0,6.9,0.6,10.7,1.7c3.8,1.1,7.4,3.1,10.7,5.9c3.3,2.8,6,6.7,8.1,11.7
		c2.1,4.9,3.2,11.2,3.2,18.9v53.7h-25.6v-49c0-3.7-0.4-6.8-1.2-9.4c-0.8-2.6-1.9-4.7-3.2-6.3c-1.4-1.6-2.9-2.7-4.7-3.4
		c-1.8-0.7-3.6-1-5.5-1c-1.7,0-3.5,0.3-5.2,0.9c-1.7,0.6-3.3,1.7-4.6,3.2c-1.4,1.5-2.4,3.5-3.2,6.1c-0.8,2.6-1.2,5.9-1.2,9.8v49.1
		h-25.6v-49c0-7.5-1.3-12.8-3.9-15.7c-2.6-2.9-6.4-4.4-11.3-4.4c-3.6,0-6.8,1.7-9.6,5c-2.8,3.3-4.3,8.5-4.3,15.5v48.6h-25.6v-91.9
		h21.9l3.7,8.6c2.8-2.7,6.1-4.9,9.9-6.4c3.8-1.5,7.8-2.2,12.1-2.2c2.2,0,4.6,0.2,7,0.7c2.5,0.4,4.9,1.2,7.2,2.3
		c2.4,1.1,4.6,2.6,6.8,4.4c2.2,1.8,4.1,4.1,5.8,6.8c1.5-2.4,3.3-4.5,5.4-6.3c2.1-1.8,4.4-3.3,6.9-4.5c2.5-1.2,5-2.1,7.7-2.6
		C952.5,714.6,955.1,714.4,957.5,714.4"/>
	<path fill="#7397FF" d="M1102.6,714.4v91.9h-22l-2.6-9.8c-3.6,4.8-7.9,8-12.9,9.6c-5,1.6-10.2,2.4-15.7,2.4
		c-6.5,0-12.6-1.3-18.1-3.8c-5.5-2.5-10.3-6-14.4-10.4c-4.1-4.4-7.3-9.5-9.5-15.4c-2.3-5.9-3.4-12.1-3.4-18.8
		c0-6.7,1.1-12.9,3.4-18.8c2.3-5.9,5.5-11,9.5-15.4c4.1-4.4,8.9-7.8,14.4-10.4c5.5-2.5,11.5-3.8,18.1-3.8c5.9,0,11.4,0.9,16.3,2.8
		c4.9,1.9,9,4.8,12.2,8.9l2.6-9.1H1102.6z M1077.1,760.5c0-4.8-0.6-8.9-1.9-12.1c-1.3-3.3-3-5.9-5.2-8c-2.2-2-4.7-3.5-7.6-4.4
		c-2.9-0.9-6-1.4-9.4-1.4c-3.3,0-6.5,0.7-9.4,2c-2.9,1.4-5.5,3.2-7.7,5.5c-2.2,2.3-4,5-5.2,8.2c-1.2,3.1-1.8,6.4-1.8,9.9
		c0,3.6,0.6,6.9,1.8,10c1.2,3.1,3,5.8,5.2,8.1c2.2,2.3,4.8,4.1,7.7,5.5c2.9,1.4,6,2,9.4,2c6.7,0,12.3-2.1,17-6.2
		C1074.6,775.4,1076.9,769,1077.1,760.5"/>
	<path fill="#7397FF" d="M1144.3,727.1c1.3-2,2.7-3.9,4.3-5.7c1.6-1.8,3.5-3.4,5.7-4.8c2.2-1.4,4.8-2.6,7.6-3.4
		c2.8-0.9,6.1-1.3,9.6-1.3c4.2,0,9.1,0.7,14.6,2.2l-2.4,22.8c-1.4-0.2-2.7-0.6-4.1-0.9c-1.1-0.2-2.3-0.5-3.7-0.7
		c-1.4-0.2-2.6-0.3-3.7-0.3c-4,0-7.6,0.5-11,1.7c-3.4,1.1-6.3,2.7-8.8,4.6c-2.5,2-4.4,4.4-5.9,7.1c-1.5,2.8-2.2,5.8-2.2,9v48.7
		h-25.6v-91.9h23.2L1144.3,727.1z"/>
</g>
<polygon fill="#7397FF" points="1195.7,671 1195.7,806.3 1221.2,806.3 1221.2,779.4 1230.3,769.6 1254.6,806.3 1285.2,806.3 
	1246.4,752.5 1282.2,714.4 1251.1,714.4 1221.2,746 1221.2,671 "/>
<g>
	<path fill="#7397FF" d="M1340.2,711.8c6.9,0,13.2,1.4,18.9,4.2c5.7,2.8,10.6,6.4,14.6,10.9c4.1,4.5,7.2,9.7,9.4,15.6
		c2.2,5.9,3.3,11.9,3.3,18.1c0,3.7-0.5,7.7-1.5,11.9h-65.6c2.5,4.2,6,7.8,10.6,10.7c4.6,2.9,9.5,4.4,14.8,4.4c5.3,0,10-0.4,14-1.3
		c4-0.9,7.8-2,11.4-3.3l8.5,15.7c-4.6,3.2-9.8,5.7-15.7,7.4c-5.9,1.7-12.1,2.6-18.8,2.6c-7.3,0-14.1-1.3-20.4-3.8
		c-6.3-2.5-11.8-6-16.5-10.3c-4.7-4.3-8.4-9.5-11.1-15.4c-2.7-5.9-4.1-12.2-4.1-18.9c0-6.6,1.3-12.8,3.7-18.6
		c2.5-5.9,5.9-11,10.3-15.4c4.4-4.4,9.5-7.9,15.3-10.5C1327.3,713.1,1333.5,711.8,1340.2,711.8 M1361.2,752.5c-1.5-5.3-4.1-9.6-8-13
		c-3.8-3.3-8.1-5-13-5c-5,0-9.4,1.7-13.4,5c-4,3.3-6.8,7.7-8.2,13H1361.2z"/>
	<path fill="#7397FF" d="M1430.3,727.1c1.2-2,2.7-3.9,4.3-5.7c1.6-1.8,3.5-3.4,5.7-4.8c2.2-1.4,4.8-2.6,7.6-3.4
		c2.8-0.9,6.1-1.3,9.6-1.3c4.2,0,9.1,0.7,14.6,2.2l-2.4,22.8c-1.4-0.2-2.7-0.6-4.1-0.9c-1.1-0.2-2.3-0.5-3.7-0.7
		c-1.4-0.2-2.6-0.3-3.7-0.3c-4,0-7.6,0.5-11,1.7c-3.4,1.1-6.3,2.7-8.8,4.6c-2.5,2-4.5,4.4-5.9,7.1c-1.5,2.8-2.2,5.8-2.2,9v48.7
		h-25.6v-91.9h23.2L1430.3,727.1z"/>
</g>
</svg>
