<?xml version="1.0" encoding="utf-8"?>
<!-- Generator: Adobe Illustrator 18.0.0, SVG Export Plug-In . SVG Version: 6.00 Build 0)  -->
<!DOCTYPE svg PUBLIC "-//W3C//DTD SVG 1.1//EN" "http://www.w3.org/Graphics/SVG/1.1/DTD/svg11.dtd">
<svg version="1.1" id="Laag_1" xmlns="http://www.w3.org/2000/svg" xmlns:xlink="http://www.w3.org/1999/xlink" x="0px" y="0px"
	 viewBox="0 0 1417.3 1417.3" enable-background="new 0 0 1417.3 1417.3" xml:space="preserve">
<g>
	<path fill="#7397FF" d="M356.5,728.7c1.1,7,7.5,9.6,14.5,9.6c6.8,0,10.6-2.9,10.6-6.5c0-2.8-2.1-4.9-8.1-6l-16.6-3.2
		c-15.1-2.8-23.7-10.9-23.7-23.7c0-16.8,14.5-27.6,35.1-27.6c20.3,0,33.8,9.3,37.1,23.4l-23.7,4.7c-0.8-5.1-5.7-9.6-13.7-9.6
		c-7,0-9.3,3.4-9.3,6.3c0,2.3,1,4.5,6.2,5.7l19.2,3.9c15.4,3.3,22.6,12.5,22.6,24.5c0,18-15.6,27.5-37.1,27.5
		c-19.2,0-35.6-7-38.3-23.7L356.5,728.7z"/>
	<path fill="#7397FF" d="M504.4,714.4c0,25.8-20.4,43.1-44.7,43.1c-24.7,0-45.2-17.2-45.2-43.1c0-25.7,20.4-42.9,45.2-42.9
		C484,671.5,504.4,688.7,504.4,714.4z M479.4,714.4c0-12.7-9.6-21.1-19.7-21.1c-10.6,0-20.1,8.4-20.1,21.1
		c0,12.8,9.6,21.1,20.1,21.1C469.8,735.5,479.4,727.3,479.4,714.4z"/>
	<path fill="#7397FF" d="M599.5,755.2h-26v-7.8c-6.2,6.5-14.8,10.2-25,10.2c-19,0-31.7-13.5-31.7-34v-50.1h25.8V718
		c0,9.6,5.7,16.1,14,16.1c10.2,0,16.9-7,16.9-22.7v-37.9h26V755.2z"/>
	<path fill="#7397FF" d="M701.1,705.2v50h-25.8v-44.5c0-9.6-5.7-16.1-14-16.1c-10.2,0-16.9,7-16.9,22.7v37.9h-26v-81.6h26v7.8
		c6.2-6.5,14.8-10.2,25-10.2C688.4,671.2,701.1,684.7,701.1,705.2z"/>
	<path fill="#7397FF" d="M804.6,755.2h-26v-6.5c-6.3,5.7-14.8,8.9-25.4,8.9c-21.6,0-39.8-17.4-39.8-43.2c0-25.7,18.2-43.2,39.8-43.2
		c10.6,0,19,3.2,25.4,8.9v-50h26V755.2z M778.7,714.4c0-12.5-9.4-21.1-20-21.1c-11.4,0-19.7,8.6-19.7,21.1
		c0,12.7,8.3,21.1,19.7,21.1C769.2,735.5,778.7,727.1,778.7,714.4z"/>
	<path fill="#7397FF" d="M960.4,704.2v51h-25.8v-45.5c0-9.3-6-15.1-13.7-15.1c-9.6,0-15.9,7-15.9,20.6v40h-26v-45.5
		c0-9.3-6-15.1-13.8-15.1c-9.4,0-15.6,7-15.6,20.6v40h-26v-81.6h26v7.5c5.5-6.2,13.5-9.9,24.1-9.9c11.4,0,21.1,4.9,26.6,13.8
		c6.5-8.4,16.2-13.8,28.9-13.8C946.5,671.2,960.4,684.3,960.4,704.2z"/>
	<path fill="#7397FF" d="M1052.2,703.5v51.7h-25v-6c-5.7,4.9-13.5,8.4-24.4,8.4c-18.2,0-30.4-10.6-30.4-26.6
		c0-15.9,12.2-26.3,34-26.3h20.8v-1.6c0-6.8-4.7-11.4-11.5-11.4c-7.8,0-12.4,3.1-13.7,10.2l-24.5-5.1c3.6-15.8,17.9-25.7,37.4-25.7
		C1037.8,671.2,1052.2,682.8,1052.2,703.5z M1027.2,723v-1.8h-17.9c-6.5,0-10.6,3.4-10.6,8.5c0,5.2,4.5,8.4,11.4,8.4
		C1019,738.2,1027.2,732.1,1027.2,723z"/>
	<path fill="#7397FF" d="M1128.4,673.2l-1.1,26h-4.7c-18.2,0-28.1,9.4-28.1,30.6v25.5h-26v-81.6h26v15.6
		c5.8-9.7,14.8-16.8,28.1-16.8C1124.9,672.5,1126.5,672.6,1128.4,673.2z"/>
	<path fill="#7397FF" d="M1199.7,755.2l-21.8-27.8l-12.4,14v13.8h-26V630.1h26v76.2l29.4-32.7h30.4l-30,34.1l36.4,47.4h-32V755.2z"
		/>
	<path fill="#7397FF" d="M1315.2,721.1h-59.8c2.1,9.7,8.8,15.8,17.5,15.8c6,0,13-1.5,17.4-9.4l23.1,4.7c-7,17.2-21.8,25.5-40.4,25.5
		c-23.5,0-43.1-17.4-43.1-43.2c0-25.7,19.5-43.2,43.2-43.2c23.1,0,41.6,16.6,42.1,43.2L1315.2,721.1L1315.2,721.1z M1255.9,705.2
		h33.6c-2.4-8.8-8.9-12.8-16.4-12.8C1265.8,692.3,1258.3,696.9,1255.9,705.2z"/>
	<path fill="#7397FF" d="M1388.7,673.2l-1.1,26h-4.7c-18.2,0-28.1,9.4-28.1,30.6v25.5h-26v-81.6h26v15.6
		c5.8-9.7,14.8-16.8,28.1-16.8C1385.1,672.5,1386.8,672.6,1388.7,673.2z"/>
</g>
<g>
	<g>
		<g>
			<defs>
				<rect id="SVGID_1_" x="9.7" y="603.6" width="260" height="212.4"/>
			</defs>
			<clipPath id="SVGID_2_">
				<use xlink:href="#SVGID_1_"  overflow="visible"/>
			</clipPath>
			<path clip-path="url(#SVGID_2_)" fill="#BBC4EF" d="M115.6,757.4c-2.5,0.8-5.1,1.6-7.6,2.3c-7.8,2.1-15.7,2.9-23.8,2.5
				c-5.8-0.3-11.6-1.4-17.2-3.1c-16.1-5.1-29.2-14.8-40.6-27c-6.1-6.6-11.5-13.7-16.4-21.2c-0.6-0.9-0.5-1.3,0.4-1.8
				c12.8-8.2,25.5-16.5,38.2-24.8c0.9-0.6,1.1-0.2,1.6,0.4c4.5,6.9,9.5,13.3,15.6,18.9c5,4.6,10.4,8.4,17.1,10
				c3.8,0.9,7.7,1,11.5-0.1c2.6,1.6,5.1,3.3,7.7,4.8c10.8,6.2,21.9,11.8,33.9,15.7c3.1,1,6.4,1.9,9.2,3.7c0.4,0.2,0.8,0.4,1.1,0.8
				c-8.5,7.4-17.8,13.4-28.1,17.7C117.4,756.6,116.4,756.7,115.6,757.4"/>
		</g>
	</g>
	<g>
		<g>
			<defs>
				<rect id="SVGID_3_" x="9.7" y="603.6" width="260" height="212.4"/>
			</defs>
			<clipPath id="SVGID_4_">
				<use xlink:href="#SVGID_3_"  overflow="visible"/>
			</clipPath>
			<path clip-path="url(#SVGID_4_)" fill="#BBC4EF" d="M164.8,662c2.4-0.7,4.8-1.5,7.2-2.1c4.4-1.2,8.8-1.9,13.3-2.2
				c9.4-0.7,18.7,0.4,27.7,3.2c0.2,0.1,0.4,0.1,0.7,0.1c3.7,1.4,7.3,2.8,10.9,4.6c7.3,3.7,13.9,8.4,20.1,13.9
				c9.7,8.6,17.6,18.6,24.8,29.4c0.6,1,0.3,1.3-0.5,1.8c-12.7,8.2-25.4,16.5-38.1,24.7c-0.8,0.5-1.1,0.4-1.6-0.4
				c-5.6-8.4-11.7-16.3-19.8-22.4c-4.4-3.4-9.3-6-14.9-6.9c-2.9-0.5-6.2-0.3-9.1,0.5c-7.3-4.9-14.7-9-22.6-13
				c-6.6-3.3-13.5-5.8-20.5-8.2c-3.1-1.1-6.2-2-8.8-4.2c7-6.1,14.6-11.2,23-15.2C159.3,664.3,162.1,663.2,164.8,662"/>
		</g>
	</g>
	<g>
		<g>
			<defs>
				<rect id="SVGID_5_" x="9.7" y="603.6" width="260" height="212.4"/>
			</defs>
			<clipPath id="SVGID_6_">
				<use xlink:href="#SVGID_5_"  overflow="visible"/>
			</clipPath>
			<path clip-path="url(#SVGID_6_)" fill="#7397FF" d="M148.5,651.9c6.5,1.6,12,5,16.3,10.1c8-2.3,15.9-4.3,24.3-4.5
				c8.6-0.2,16.3,1.9,24.6,3.5c-3.6-30.6-34.5-52.9-63.1-56.7c-31.3-4.2-66.8,11.8-77.1,43.3c-3.6,9.4-4.8,18.6-3.5,27.4
				c1.6,15.9,12.5,28.9,24.5,38.5c8.4,5.3,16.9,10.2,25.9,14.3c4.5,2.1,9.1,4,13.9,5.6c3,1,9.4,3.3,12,5c11,7.3,12.5,20.3,0.7,27.6
				c-10.5,6.4-24.4,0-31.4-8.7c-16.2,4.9-32,6.7-48.5,1.7c10.9,54.5,83,75,123.5,38.7c19.2-17.3,27.4-49.3,13.4-72
				c-7.7-12.4-18.4-20.6-31.1-27.4c-6.5-3.5-13.2-6.9-20.1-9.6c-6.1-2.4-13.1-4.3-19.1-8c-7.8-4.8-11.3-13.2-5.9-21.3
				C132.3,652.5,140.5,649.9,148.5,651.9C155,653.5,138,649.2,148.5,651.9"/>
		</g>
	</g>
</g>
</svg>
