<?xml version="1.0" encoding="utf-8"?>
<!-- Generator: Adobe Illustrator 18.0.0, SVG Export Plug-In . SVG Version: 6.00 Build 0)  -->
<!DOCTYPE svg PUBLIC "-//W3C//DTD SVG 1.1//EN" "http://www.w3.org/Graphics/SVG/1.1/DTD/svg11.dtd">
<svg version="1.1" id="Laag_1" xmlns="http://www.w3.org/2000/svg" xmlns:xlink="http://www.w3.org/1999/xlink" x="0px" y="0px"
	 viewBox="0 0 800 200" enable-background="new 0 0 800 200" xml:space="preserve">
<g>
	<path fill="#7397FF" d="M201.4,108.7c0.6,4,4.3,5.6,8.4,5.6c3.9,0,6.1-1.7,6.1-3.8c0-1.6-1.2-2.8-4.7-3.5l-9.6-1.9
		c-8.7-1.6-13.7-6.3-13.7-13.7c0-9.7,8.4-16,20.3-16c11.7,0,19.6,5.4,21.5,13.5L216,91.7c-0.5-3-3.3-5.6-7.9-5.6c-4,0-5.4,2-5.4,3.6
		c0,1.3,0.6,2.6,3.6,3.3l11.1,2.3c8.9,1.9,13.1,7.2,13.1,14.2c0,10.4-9,15.9-21.5,15.9c-11.1,0-20.6-4-22.2-13.7L201.4,108.7z"/>
	<path fill="#7397FF" d="M286.9,100.4c0,14.9-11.8,24.9-25.9,24.9c-14.3,0-26.1-9.9-26.1-24.9c0-14.9,11.8-24.8,26.1-24.8
		C275.1,75.6,286.9,85.5,286.9,100.4z M272.5,100.4c0-7.3-5.6-12.2-11.4-12.2c-6.1,0-11.6,4.9-11.6,12.2c0,7.4,5.6,12.2,11.6,12.2
		C266.9,112.6,272.5,107.8,272.5,100.4z"/>
	<path fill="#7397FF" d="M341.9,124h-15v-4.5c-3.6,3.8-8.6,5.9-14.5,5.9c-11,0-18.3-7.8-18.3-19.7v-29H309v25.7
		c0,5.6,3.3,9.3,8.1,9.3c5.9,0,9.8-4,9.8-13.1V76.7h15V124z"/>
	<path fill="#7397FF" d="M400.7,95.1V124h-14.9V98.2c0-5.6-3.3-9.3-8.1-9.3c-5.9,0-9.8,4-9.8,13.1V124h-15V76.8h15v4.5
		c3.6-3.8,8.6-5.9,14.5-5.9C393.4,75.4,400.7,83.2,400.7,95.1z"/>
	<path fill="#7397FF" d="M460.6,124h-15v-3.8c-3.6,3.3-8.6,5.1-14.7,5.1c-12.5,0-23-10.1-23-25c0-14.9,10.5-25,23-25
		c6.1,0,11,1.9,14.7,5.1V51.6h15V124z M445.6,100.4c0-7.2-5.4-12.2-11.6-12.2c-6.6,0-11.4,5-11.4,12.2c0,7.3,4.8,12.2,11.4,12.2
		C440.1,112.6,445.6,107.7,445.6,100.4z"/>
	<path fill="#7397FF" d="M550.7,94.5V124h-14.9V97.7c0-5.4-3.5-8.7-7.9-8.7c-5.6,0-9.2,4-9.2,11.9V124h-15V97.7c0-5.4-3.5-8.7-8-8.7
		c-5.4,0-9,4-9,11.9V124h-15V76.8h15v4.3c3.2-3.6,7.8-5.7,13.9-5.7c6.6,0,12.2,2.8,15.4,8c3.8-4.9,9.4-8,16.7-8
		C542.7,75.4,550.7,83,550.7,94.5z"/>
	<path fill="#7397FF" d="M603.8,94.1V124h-14.5v-3.5c-3.3,2.8-7.8,4.9-14.1,4.9c-10.5,0-17.6-6.1-17.6-15.4
		c0-9.2,7.1-15.2,19.7-15.2h12v-0.9c0-3.9-2.7-6.6-6.7-6.6c-4.5,0-7.2,1.8-7.9,5.9l-14.2-3c2.1-9.1,10.4-14.9,21.6-14.9
		C595.5,75.4,603.8,82.1,603.8,94.1z M589.4,105.4v-1H579c-3.8,0-6.1,2-6.1,4.9c0,3,2.6,4.9,6.6,4.9
		C584.6,114.2,589.4,110.6,589.4,105.4z"/>
	<path fill="#7397FF" d="M647.9,76.6l-0.6,15h-2.7c-10.5,0-16.3,5.4-16.3,17.7V124h-15V76.8h15v9c3.4-5.6,8.6-9.7,16.3-9.7
		C645.9,76.1,646.8,76.2,647.9,76.6z"/>
	<path fill="#7397FF" d="M689.1,124l-12.6-16.1l-7.2,8.1v8h-15V51.6h15v44.1l17-18.9h17.6l-17.4,19.7l21.1,27.4L689.1,124L689.1,124
		z"/>
	<path fill="#7397FF" d="M755.9,104.3h-34.6c1.2,5.6,5.1,9.1,10.1,9.1c3.5,0,7.5-0.9,10.1-5.4l13.4,2.7c-4,9.9-12.6,14.8-23.4,14.8
		c-13.6,0-24.9-10.1-24.9-25c0-14.9,11.3-25,25-25c13.4,0,24.1,9.6,24.4,25L755.9,104.3L755.9,104.3z M721.6,95.1h19.4
		c-1.4-5.1-5.1-7.4-9.5-7.4C727.4,87.6,723,90.3,721.6,95.1z"/>
	<path fill="#7397FF" d="M798.5,76.6l-0.6,15h-2.7c-10.5,0-16.3,5.4-16.3,17.7V124h-15V76.8h15v9c3.4-5.6,8.6-9.7,16.3-9.7
		C796.4,76.1,797.4,76.2,798.5,76.6z"/>
</g>
<g>
	<g>
		<g>
			<g>
				<defs>
					<rect id="SVGID_1_" x="0.8" y="36.3" width="150.4" height="122.9"/>
				</defs>
				<clipPath id="SVGID_2_">
					<use xlink:href="#SVGID_1_"  overflow="visible"/>
				</clipPath>
				<path clip-path="url(#SVGID_2_)" fill="#CFD4FF" d="M62,125.3c-1.4,0.5-3,0.9-4.4,1.3c-4.5,1.2-9.1,1.7-13.8,1.4
					c-3.4-0.2-6.7-0.8-9.9-1.8c-9.3-3-16.9-8.6-23.5-15.6c-3.5-3.8-6.7-7.9-9.5-12.3c-0.3-0.5-0.3-0.8,0.2-1
					c7.4-4.7,14.8-9.5,22.1-14.3c0.5-0.3,0.6-0.1,0.9,0.2c2.6,4,5.5,7.7,9,10.9c2.9,2.7,6,4.9,9.9,5.8c2.2,0.5,4.5,0.6,6.7-0.1
					c1.5,0.9,3,1.9,4.5,2.8c6.2,3.6,12.7,6.8,19.6,9.1c1.8,0.6,3.7,1.1,5.3,2.1c0.2,0.1,0.5,0.2,0.6,0.5
					c-4.9,4.3-10.3,7.8-16.3,10.2C63.1,124.8,62.5,124.9,62,125.3"/>
			</g>
		</g>
	</g>
	<g>
		<g>
			<g>
				<defs>
					<rect id="SVGID_3_" x="0.8" y="36.3" width="150.4" height="122.9"/>
				</defs>
				<clipPath id="SVGID_4_">
					<use xlink:href="#SVGID_3_"  overflow="visible"/>
				</clipPath>
				<path clip-path="url(#SVGID_4_)" fill="#CFD4FF" d="M90.5,70.1c1.4-0.4,2.8-0.9,4.2-1.2c2.5-0.7,5.1-1.1,7.7-1.3
					c5.4-0.4,10.8,0.2,16,1.9c0.1,0.1,0.2,0.1,0.4,0.1c2.1,0.8,4.2,1.6,6.3,2.7c4.2,2.1,8,4.9,11.6,8c5.6,5,10.2,10.8,14.3,17
					c0.3,0.6,0.2,0.8-0.3,1c-7.3,4.7-14.7,9.5-22,14.3c-0.5,0.3-0.6,0.2-0.9-0.2c-3.2-4.9-6.8-9.4-11.5-13c-2.5-2-5.4-3.5-8.6-4
					c-1.7-0.3-3.6-0.2-5.3,0.3c-4.2-2.8-8.5-5.2-13.1-7.5c-3.8-1.9-7.8-3.4-11.9-4.7c-1.8-0.6-3.6-1.2-5.1-2.4
					c4-3.5,8.4-6.5,13.3-8.8C87.3,71.4,88.9,70.8,90.5,70.1"/>
			</g>
		</g>
	</g>
	<g>
		<g>
			<g>
				<defs>
					<rect id="SVGID_5_" x="0.8" y="36.3" width="150.4" height="122.9"/>
				</defs>
				<clipPath id="SVGID_6_">
					<use xlink:href="#SVGID_5_"  overflow="visible"/>
				</clipPath>
				<path clip-path="url(#SVGID_6_)" fill="#7397FF" d="M81.1,64.2c3.8,0.9,6.9,2.9,9.4,5.8c4.6-1.3,9.2-2.5,14.1-2.6
					c5-0.1,9.4,1.1,14.2,2c-2.1-17.7-20-30.6-36.5-32.8c-18.1-2.4-38.6,6.8-44.6,25c-2.1,5.4-2.8,10.8-2,15.8
					c0.9,9.2,7.2,16.7,14.2,22.3c4.9,3.1,9.8,5.9,15,8.3c2.6,1.2,5.3,2.3,8,3.2c1.7,0.6,5.4,1.9,6.9,2.9c6.4,4.2,7.2,11.7,0.4,16
					c-6.1,3.7-14.1,0-18.2-5c-9.4,2.8-18.5,3.9-28.1,1c6.3,31.5,48,43.4,71.4,22.4c11.1-10,15.8-28.5,7.8-41.6
					c-4.5-7.2-10.6-11.9-18-15.8c-3.8-2-7.6-4-11.6-5.6c-3.5-1.4-7.6-2.5-11-4.6c-4.5-2.8-6.5-7.6-3.4-12.3
					C71.7,64.6,76.4,63.1,81.1,64.2C84.8,65.2,75,62.7,81.1,64.2"/>
			</g>
		</g>
	</g>
</g>
<g>
	<path fill="#CFD4FF" d="M690,60.3h-3.7V25.2h4.7v14.6c0.9-1,1.9-1.7,3.1-2.2c1.2-0.5,2.6-0.8,4.1-0.8c1.6,0,3.1,0.3,4.4,0.9
		s2.5,1.5,3.5,2.6c1,1.1,1.8,2.4,2.3,3.8c0.6,1.5,0.8,3,0.8,4.7c0,1.7-0.3,3.2-0.8,4.7c-0.6,1.5-1.3,2.8-2.3,3.8
		c-1,1.1-2.2,1.9-3.5,2.6c-1.4,0.6-2.8,0.9-4.4,0.9c-1.5,0-2.9-0.3-4.1-0.8c-1.2-0.5-2.3-1.3-3.2-2.2L690,60.3z M697.9,40.9
		c-0.9,0-1.8,0.1-2.6,0.4c-0.8,0.3-1.6,0.7-2.2,1.3c-0.6,0.6-1.1,1.4-1.5,2.4s-0.5,2.2-0.5,3.7c0,1.3,0.2,2.5,0.5,3.5
		c0.4,1,0.8,1.8,1.5,2.5s1.4,1.1,2.2,1.5c0.8,0.3,1.7,0.5,2.6,0.5s1.8-0.2,2.6-0.6c0.8-0.4,1.6-1,2.2-1.7c0.6-0.7,1.1-1.6,1.4-2.5
		c0.4-1,0.5-2,0.5-3.1c0-1.1-0.2-2.1-0.5-3.1c-0.4-1-0.8-1.8-1.4-2.5c-0.6-0.7-1.3-1.3-2.2-1.7C699.7,41.1,698.8,40.9,697.9,40.9z"
		/>
	<path fill="#CFD4FF" d="M725.1,60.8c-1.7,0-3.2-0.3-4.7-0.9c-1.5-0.6-2.7-1.5-3.8-2.6c-1.1-1.1-1.9-2.4-2.6-3.8s-0.9-3-0.9-4.7
		c0-1.7,0.3-3.2,0.9-4.7c0.6-1.5,1.4-2.8,2.4-3.8c1-1.1,2.2-1.9,3.5-2.6c1.3-0.6,2.8-0.9,4.3-0.9c1.6,0,3,0.3,4.4,0.8
		c1.3,0.5,2.5,1.4,3.5,2.5s1.7,2.6,2.3,4.4c0.5,1.8,0.8,3.9,0.8,6.4h-17.1c0.2,0.8,0.6,1.6,1.1,2.3c0.5,0.7,1,1.3,1.7,1.9
		c0.7,0.5,1.4,0.9,2.2,1.2c0.8,0.3,1.7,0.4,2.6,0.4c1.2,0,2.3-0.2,3.4-0.7c1-0.4,1.9-1,2.7-1.8l2.9,2.9c-1.1,1.1-2.5,2-4.1,2.7
		C728.8,60.5,727.1,60.8,725.1,60.8z M724.3,40.9c-0.7,0-1.4,0.1-2.1,0.4c-0.7,0.3-1.3,0.7-1.8,1.2c-0.6,0.5-1,1.1-1.4,1.8
		c-0.4,0.7-0.7,1.5-0.9,2.3h12.2c-0.1-0.8-0.2-1.5-0.5-2.2c-0.3-0.7-0.7-1.3-1.2-1.9c-0.5-0.5-1.1-0.9-1.8-1.3
		C726,41.1,725.2,40.9,724.3,40.9z"/>
	<path fill="#CFD4FF" d="M748.3,61c-1.3,0.1-2.4-0.1-3.5-0.6c-1-0.5-1.9-1.3-2.5-2.5c-0.6-1.2-1-2.8-1-4.9V41.4H738v-3.2l3.4-1v-6.2
		h4.7v6.2h6.3v4.1h-6.3v12.4c0,0.8,0.1,1.4,0.3,1.8c0.2,0.4,0.5,0.8,0.9,1c0.4,0.2,1,0.3,1.6,0.3s1.5-0.1,2.5-0.2l0.9,3.4
		C750.9,60.6,749.6,60.9,748.3,61z"/>
	<path fill="#CFD4FF" d="M778,37.2v23H774l-0.7-2.6c-0.8,1.1-1.8,1.9-3.1,2.4c-1.3,0.5-2.5,0.8-3.8,0.8c-1.6,0-3.1-0.3-4.5-0.9
		c-1.4-0.6-2.6-1.5-3.7-2.6c-1-1.1-1.9-2.4-2.5-3.8s-0.9-3-0.9-4.7c0-1.7,0.3-3.2,0.9-4.7c0.6-1.5,1.4-2.8,2.5-3.8
		c1-1.1,2.3-1.9,3.7-2.6c1.4-0.6,2.9-0.9,4.5-0.9c1.3,0,2.5,0.2,3.7,0.7c1.2,0.5,2.2,1.3,3.2,2.3l0.7-2.5H778z M766.4,56.7
		c0.9,0,1.8-0.2,2.6-0.6c0.8-0.4,1.6-1,2.2-1.7c0.6-0.7,1.1-1.6,1.4-2.5c0.4-1,0.5-2,0.5-3.1c0-1.1-0.2-2.1-0.5-3.1
		c-0.4-1-0.8-1.8-1.4-2.5c-0.6-0.7-1.3-1.3-2.2-1.7c-0.8-0.4-1.7-0.6-2.6-0.6c-0.9,0-1.8,0.2-2.6,0.6c-0.8,0.4-1.6,1-2.2,1.7
		c-0.6,0.7-1.1,1.6-1.4,2.5c-0.4,1-0.5,2-0.5,3.1c0,1.1,0.2,2.1,0.5,3.1c0.4,1,0.8,1.8,1.4,2.5c0.6,0.7,1.3,1.3,2.2,1.7
		C764.6,56.5,765.5,56.7,766.4,56.7z"/>
</g>
</svg>
