<?xml version="1.0" encoding="utf-8"?>
<!-- Generator: Adobe Illustrator 18.0.0, SVG Export Plug-In . SVG Version: 6.00 Build 0)  -->
<!DOCTYPE svg PUBLIC "-//W3C//DTD SVG 1.1//EN" "http://www.w3.org/Graphics/SVG/1.1/DTD/svg11.dtd">
<svg version="1.1" id="Laag_1" xmlns="http://www.w3.org/2000/svg" xmlns:xlink="http://www.w3.org/1999/xlink" x="0px" y="0px"
	 width="800px" height="200px" viewBox="0 0 800 200" enable-background="new 0 0 800 200" xml:space="preserve">
<g>
	<path fill="#7397FF" d="M201.4,112.2c0.6,4.2,4.3,5.8,8.4,5.8c3.9,0,6.1-1.8,6.1-4c0-1.7-1.2-2.9-4.7-3.6l-9.6-2
		c-8.7-1.7-13.7-6.6-13.7-14.3c0-10.1,8.4-16.7,20.3-16.7c11.7,0,19.6,5.6,21.5,14.1L216,94.5c-0.5-3.1-3.3-5.8-7.9-5.8
		c-4,0-5.4,2.1-5.4,3.8c0,1.4,0.6,2.7,3.6,3.4l11.1,2.4c8.9,2,13.1,7.5,13.1,14.8c0,10.8-9,16.6-21.5,16.6
		c-11.1,0-20.6-4.2-22.2-14.3L201.4,112.2z"/>
	<path fill="#7397FF" d="M286.9,103.5c0,15.5-11.8,25.9-25.9,25.9c-14.3,0-26.1-10.3-26.1-25.9c0-15.5,11.8-25.8,26.1-25.8
		C275.1,77.7,286.9,88,286.9,103.5z M272.5,103.5c0-7.6-5.6-12.7-11.4-12.7c-6.1,0-11.6,5.1-11.6,12.7c0,7.7,5.6,12.7,11.6,12.7
		C266.9,116.2,272.5,111.2,272.5,103.5z"/>
	<path fill="#7397FF" d="M341.9,128.1h-15v-4.7c-3.6,4-8.6,6.1-14.5,6.1c-11,0-18.3-8.1-18.3-20.5V78.8H309v26.8
		c0,5.8,3.3,9.7,8.1,9.7c5.9,0,9.8-4.2,9.8-13.6V78.8h15V128.1z"/>
	<path fill="#7397FF" d="M400.7,98v30.1h-14.9v-26.9c0-5.8-3.3-9.7-8.1-9.7c-5.9,0-9.8,4.2-9.8,13.6v22.9h-15V79h15v4.7
		c3.6-4,8.6-6.1,14.5-6.1C393.4,77.5,400.7,85.6,400.7,98z"/>
	<path fill="#7397FF" d="M460.6,128.1h-15v-4c-3.6,3.4-8.6,5.3-14.7,5.3c-12.5,0-23-10.5-23-26s10.5-26,23-26c6.1,0,11,2,14.7,5.3
		v-30h15V128.1z M445.6,103.5c0-7.5-5.4-12.7-11.6-12.7c-6.6,0-11.4,5.2-11.4,12.7c0,7.6,4.8,12.7,11.4,12.7
		C440.1,116.2,445.6,111.1,445.6,103.5z"/>
	<path fill="#7397FF" d="M550.7,97.4v30.7h-14.9v-27.4c0-5.6-3.5-9.1-7.9-9.1c-5.6,0-9.2,4.2-9.2,12.4v24.1h-15v-27.4
		c0-5.6-3.5-9.1-8-9.1c-5.4,0-9,4.2-9,12.4v24.1h-15V79h15v4.5c3.2-3.8,7.8-5.9,13.9-5.9c6.6,0,12.2,2.9,15.4,8.3
		c3.8-5.1,9.4-8.3,16.7-8.3C542.7,77.5,550.7,85.4,550.7,97.4z"/>
	<path fill="#7397FF" d="M603.8,97v31.1h-14.5v-3.6c-3.3,2.9-7.8,5.1-14.1,5.1c-10.5,0-17.6-6.4-17.6-16c0-9.6,7.1-15.8,19.7-15.8
		h12v-0.9c0-4.1-2.7-6.9-6.7-6.9c-4.5,0-7.2,1.9-7.9,6.1l-14.2-3.1c2.1-9.5,10.4-15.5,21.6-15.5C595.5,77.5,603.8,84.5,603.8,97z
		 M589.4,108.7v-1H579c-3.8,0-6.1,2.1-6.1,5.1c0,3.1,2.6,5.1,6.6,5.1C584.6,117.9,589.4,114.2,589.4,108.7z"/>
	<path fill="#7397FF" d="M647.9,78.7l-0.6,15.6h-2.7c-10.5,0-16.3,5.6-16.3,18.4v15.3h-15V79h15v9.4c3.4-5.8,8.6-10.1,16.3-10.1
		C645.9,78.2,646.8,78.3,647.9,78.7z"/>
	<path fill="#7397FF" d="M689.1,128.1l-12.6-16.8l-7.2,8.4v8.3h-15V52.7h15v45.9l17-19.7h17.6l-17.4,20.5l21.1,28.5L689.1,128.1
		L689.1,128.1z"/>
	<path fill="#7397FF" d="M755.9,107.6h-34.6c1.2,5.8,5.1,9.5,10.1,9.5c3.5,0,7.5-0.9,10.1-5.6l13.4,2.8c-4,10.3-12.6,15.4-23.4,15.4
		c-13.6,0-24.9-10.5-24.9-26s11.3-26,25-26c13.4,0,24.1,10,24.4,26L755.9,107.6L755.9,107.6z M721.6,98H741
		c-1.4-5.3-5.1-7.7-9.5-7.7C727.4,90.2,723,93,721.6,98z"/>
	<path fill="#7397FF" d="M798.5,78.7l-0.6,15.6h-2.7c-10.5,0-16.3,5.6-16.3,18.4v15.3h-15V79h15v9.4c3.4-5.8,8.6-10.1,16.3-10.1
		C796.4,78.2,797.4,78.3,798.5,78.7z"/>
</g>
<g>
	<g>
		<g>
			<g>
				<g>
					<g>
						<defs>
							<rect id="SVGID_1_" x="0.8" y="36.8" width="150.4" height="128"/>
						</defs>
						<clipPath id="SVGID_2_">
							<use xlink:href="#SVGID_1_"  overflow="visible"/>
						</clipPath>
						<path clip-path="url(#SVGID_2_)" fill="#CFD4FF" d="M62,129.5c-1.4,0.5-3,0.9-4.4,1.4c-4.5,1.2-9.1,1.8-13.8,1.5
							c-3.4-0.2-6.7-0.8-9.9-1.9c-9.3-3.1-16.9-9-23.5-16.2c-3.5-4-6.7-8.2-9.5-12.8c-0.3-0.5-0.3-0.8,0.2-1
							c7.4-4.9,14.8-9.9,22.1-14.9c0.5-0.3,0.6-0.1,0.9,0.2c2.6,4.2,5.5,8,9,11.4c2.9,2.8,6,5.1,9.9,6c2.2,0.5,4.5,0.6,6.7-0.1
							c1.5,0.9,3,2,4.5,2.9c6.2,3.8,12.7,7.1,19.6,9.5c1.8,0.6,3.7,1.1,5.3,2.2c0.2,0.1,0.5,0.2,0.6,0.5
							c-4.9,4.5-10.3,8.1-16.3,10.6C63.1,129,62.5,129.1,62,129.5"/>
					</g>
				</g>
			</g>
		</g>
	</g>
	<g>
		<g>
			<g>
				<g>
					<g>
						<defs>
							<rect id="SVGID_3_" x="0.8" y="36.8" width="150.4" height="128"/>
						</defs>
						<clipPath id="SVGID_4_">
							<use xlink:href="#SVGID_3_"  overflow="visible"/>
						</clipPath>
						<path clip-path="url(#SVGID_4_)" fill="#CFD4FF" d="M90.5,72c1.4-0.4,2.8-0.9,4.2-1.2c2.5-0.7,5.1-1.1,7.7-1.4
							c5.4-0.4,10.8,0.2,16,2c0.1,0.1,0.2,0.1,0.4,0.1c2.1,0.8,4.2,1.7,6.3,2.8c4.2,2.2,8,5.1,11.6,8.3c5.6,5.2,10.2,11.2,14.3,17.7
							c0.3,0.6,0.2,0.8-0.3,1c-7.3,4.9-14.7,9.9-22,14.9c-0.5,0.3-0.6,0.2-0.9-0.2c-3.2-5.1-6.8-9.8-11.5-13.5
							c-2.5-2.1-5.4-3.6-8.6-4.2c-1.7-0.3-3.6-0.2-5.3,0.3c-4.2-2.9-8.5-5.4-13.1-7.8c-3.8-2-7.8-3.5-11.9-4.9
							c-1.8-0.6-3.6-1.2-5.1-2.5c4-3.6,8.4-6.8,13.3-9.2C87.3,73.3,88.9,72.7,90.5,72"/>
					</g>
				</g>
			</g>
		</g>
	</g>
	<g>
		<g>
			<g>
				<g>
					<g>
						<defs>
							<rect id="SVGID_5_" x="0.8" y="36.8" width="150.4" height="128"/>
						</defs>
						<clipPath id="SVGID_6_">
							<use xlink:href="#SVGID_5_"  overflow="visible"/>
						</clipPath>
						<path clip-path="url(#SVGID_6_)" fill="#7397FF" d="M81.1,65.8c3.8,0.9,6.9,3,9.4,6c4.6-1.4,9.2-2.6,14.1-2.7
							c5-0.1,9.4,1.1,14.2,2.1c-2.1-18.4-20-31.9-36.5-34.2c-18.1-2.5-38.6,7.1-44.6,26c-2.1,5.6-2.8,11.2-2,16.5
							c0.9,9.6,7.2,17.4,14.2,23.2c4.9,3.2,9.8,6.1,15,8.6c2.6,1.2,5.3,2.4,8,3.3c1.7,0.6,5.4,2,6.9,3c6.4,4.4,7.2,12.2,0.4,16.7
							c-6.1,3.9-14.1,0-18.2-5.2c-9.4,2.9-18.5,4.1-28.1,1c6.3,32.8,48,45.2,71.4,23.3c11.1-10.4,15.8-29.7,7.8-43.3
							c-4.5-7.5-10.6-12.4-18-16.5c-3.8-2.1-7.6-4.2-11.6-5.8c-3.5-1.5-7.6-2.6-11-4.8c-4.5-2.9-6.5-7.9-3.4-12.8
							C71.7,66.2,76.4,64.7,81.1,65.8C84.8,66.9,75,64.3,81.1,65.8"/>
					</g>
				</g>
			</g>
		</g>
	</g>
</g>
<g>
	<path fill="#FFC0CB" d="M690,61.8h-3.7V25.2h4.7v15.2c0.9-1,1.9-1.8,3.1-2.3c1.2-0.5,2.6-0.8,4.1-0.8c1.6,0,3.1,0.3,4.4,0.9
		c1.3,0.6,2.5,1.6,3.5,2.7s1.8,2.5,2.3,4c0.6,1.6,0.8,3.1,0.8,4.9c0,1.8-0.3,3.3-0.8,4.9c-0.6,1.6-1.3,2.9-2.3,4
		c-1,1.1-2.2,2-3.5,2.7c-1.4,0.6-2.8,0.9-4.4,0.9c-1.5,0-2.9-0.3-4.1-0.8c-1.2-0.5-2.3-1.4-3.2-2.3L690,61.8z M697.9,41.6
		c-0.9,0-1.8,0.1-2.6,0.4c-0.8,0.3-1.6,0.7-2.2,1.4c-0.6,0.6-1.1,1.5-1.5,2.5c-0.4,1-0.5,2.3-0.5,3.9c0,1.4,0.2,2.6,0.5,3.6
		c0.4,1,0.8,1.9,1.5,2.6s1.4,1.1,2.2,1.6c0.8,0.3,1.7,0.5,2.6,0.5s1.8-0.2,2.6-0.6c0.8-0.4,1.6-1,2.2-1.8c0.6-0.7,1.1-1.7,1.4-2.6
		c0.4-1,0.5-2.1,0.5-3.2c0-1.1-0.2-2.2-0.5-3.2c-0.4-1-0.8-1.9-1.4-2.6c-0.6-0.7-1.3-1.4-2.2-1.8C699.7,41.8,698.8,41.6,697.9,41.6z
		"/>
	<path fill="#FFC0CB" d="M725.1,62.3c-1.7,0-3.2-0.3-4.7-0.9c-1.5-0.6-2.7-1.6-3.8-2.7s-1.9-2.5-2.6-4s-0.9-3.1-0.9-4.9
		c0-1.8,0.3-3.3,0.9-4.9c0.6-1.6,1.4-2.9,2.4-4c1-1.1,2.2-2,3.5-2.7c1.3-0.6,2.8-0.9,4.3-0.9c1.6,0,3,0.3,4.4,0.8
		c1.3,0.5,2.5,1.5,3.5,2.6s1.7,2.7,2.3,4.6c0.5,1.9,0.8,4.1,0.8,6.7h-17.1c0.2,0.8,0.6,1.7,1.1,2.4s1,1.4,1.7,2
		c0.7,0.5,1.4,0.9,2.2,1.3c0.8,0.3,1.7,0.4,2.6,0.4c1.2,0,2.3-0.2,3.4-0.7c1-0.4,1.9-1,2.7-1.9l2.9,3c-1.1,1.1-2.5,2.1-4.1,2.8
		C728.8,62,727.1,62.3,725.1,62.3z M724.3,41.6c-0.7,0-1.4,0.1-2.1,0.4c-0.7,0.3-1.3,0.7-1.8,1.2c-0.6,0.5-1,1.1-1.4,1.9
		s-0.7,1.6-0.9,2.4h12.2c-0.1-0.8-0.2-1.6-0.5-2.3c-0.3-0.7-0.7-1.4-1.2-2c-0.5-0.5-1.1-0.9-1.8-1.4C726,41.8,725.2,41.6,724.3,41.6
		z"/>
	<path fill="#FFC0CB" d="M748.3,62.5c-1.3,0.1-2.4-0.1-3.5-0.6c-1-0.5-1.9-1.4-2.5-2.6s-1-2.9-1-5.1V42.1H738v-3.3l3.4-1v-6.5h4.7
		v6.5h6.3V42h-6.3v12.9c0,0.8,0.1,1.5,0.3,1.9c0.2,0.4,0.5,0.8,0.9,1s1,0.3,1.6,0.3s1.5-0.1,2.5-0.2l0.9,3.5
		C750.9,62.1,749.6,62.4,748.3,62.5z"/>
	<path fill="#FFC0CB" d="M778,37.7v24h-4l-0.7-2.7c-0.8,1.1-1.8,2-3.1,2.5c-1.3,0.5-2.5,0.8-3.8,0.8c-1.6,0-3.1-0.3-4.5-0.9
		c-1.4-0.6-2.6-1.6-3.7-2.7c-1-1.1-1.9-2.5-2.5-4s-0.9-3.1-0.9-4.9c0-1.8,0.3-3.3,0.9-4.9c0.6-1.6,1.4-2.9,2.5-4
		c1-1.1,2.3-2,3.7-2.7c1.4-0.6,2.9-0.9,4.5-0.9c1.3,0,2.5,0.2,3.7,0.7s2.2,1.4,3.2,2.4l0.7-2.6h4L778,37.7L778,37.7z M766.4,58
		c0.9,0,1.8-0.2,2.6-0.6c0.8-0.4,1.6-1,2.2-1.8c0.6-0.7,1.1-1.7,1.4-2.6c0.4-1,0.5-2.1,0.5-3.2s-0.2-2.2-0.5-3.2
		c-0.4-1-0.8-1.9-1.4-2.6c-0.6-0.7-1.3-1.4-2.2-1.8c-0.8-0.4-1.7-0.6-2.6-0.6c-0.9,0-1.8,0.2-2.6,0.6c-0.8,0.4-1.6,1-2.2,1.8
		c-0.6,0.7-1.1,1.7-1.4,2.6c-0.4,1-0.5,2.1-0.5,3.2s0.2,2.2,0.5,3.2c0.4,1,0.8,1.9,1.4,2.6c0.6,0.7,1.3,1.4,2.2,1.8
		C764.6,57.8,765.5,58,766.4,58z"/>
</g>
</svg>
