<?xml version="1.0" encoding="utf-8"?>
<!-- Generator: Adobe Illustrator 24.0.1, SVG Export Plug-In . SVG Version: 6.00 Build 0)  -->
<svg version="1.1" id="Laag_1" xmlns="http://www.w3.org/2000/svg" xmlns:xlink="http://www.w3.org/1999/xlink" x="0px" y="0px"
	 viewBox="0 0 1500 1500" style="enable-background:new 0 0 1500 1500;" xml:space="preserve">
<style type="text/css">
	.st0{opacity:0.4;}
	.st1{fill:#7396FF;}
</style>
<g>
	<g class="st0">
		<path class="st1" d="M122.6,801c-5,1.5-10,3.1-15.2,4c-5.1,0.9-10.3,1.2-15.5,1c-9.9-0.3-19.7-2.7-28.8-6.7
			c-16.7-7.5-30.5-20.4-41.6-34.7c-1.5-1.9-2.9-3.9-4.3-5.8c-1.5-2-3.3-4.2-4.4-6.4c-0.8-1.5,3.5-3.3,4.5-4c2.4-1.5,4.8-3.1,7.2-4.6
			c9.2-5.9,18.4-11.9,27.5-17.9c0.5-0.3,1.7-1.5,2.3-0.8c0.7,0.7,1.2,1.7,1.7,2.5c1.4,2.1,2.9,4.1,4.4,6.1c2.9,3.8,6.1,7.5,9.6,10.8
			c6.6,6.3,14.9,11.9,24.3,11.9c1.3,0,2.5-0.1,3.8-0.3c0.6-0.1,1.3-0.2,1.9-0.4c0.9-0.2,1.4,0.3,2.2,0.8c2.5,1.6,4.9,3.2,7.5,4.6
			c4.9,2.8,9.9,5.5,15,7.9c4.9,2.4,9.9,4.5,15,6.4c2.6,0.9,5.2,1.7,7.8,2.6c1.3,0.4,2.5,0.9,3.7,1.5c0.9,0.4,2.6,1.1,3.1,1.9
			c-4.8,4.2-9.9,8-15.3,11.3c-2.6,1.6-5.3,3.1-8.1,4.4c-1.4,0.7-2.8,1.3-4.2,2C125.6,799.7,123.7,800,122.6,801"/>
		<path class="st1" d="M173.6,701.9c5.2-1.5,10.3-3.1,15.6-3.8c5.2-0.8,10.4-1,15.6-0.8c10.2,0.6,19.9,3.2,29.1,7.6
			c17.8,8.4,32.1,23.1,43.5,38.9c1.4,1.9,2.7,3.8,4,5.8c0.4,0.6,1.4,1.6,0.8,2.4c-0.8,1-2.3,1.6-3.4,2.3c-4.6,3-9.2,5.9-13.7,8.9
			c-4.6,3-9.2,5.9-13.7,8.9c-2.2,1.4-4.4,2.9-6.6,4.3c-1,0.7-2,1.5-3.1,2c-1,0.4-1.5-0.9-1.9-1.6c-5.3-7.8-11.2-15.3-18.5-21.3
			c-7.3-5.9-16.7-10.4-26.3-7.8c-8.5-5.7-17.5-10.8-26.8-15.1c-4.7-2.1-9.5-4-14.4-5.7c-4.3-1.5-9.1-2.6-12.6-5.6
			c4.7-4.1,9.7-7.8,15.1-11C161.9,707.1,167.7,704.5,173.6,701.9"/>
	</g>
	<path class="st1" d="M155,691c0.5,0.1,1.1,0.3,1.6,0.4c0.1,0,0.2,0,0.2,0.1c0.5,0.1,1,0.2,1.4,0.4C157.2,691.6,156.1,691.3,155,691
		z"/>
	<g>
		<path class="st1" d="M173.7,735.3c-4.6-2.3-9.3-4.4-14.1-6.2c-4.4-1.6-8.9-3.1-13.3-5c-7.3-3.3-15-9.3-13.8-18.3
			c0.7-5,3.5-8.9,7.3-11.4c2.5-1.7,5.5-2.8,8.5-3.3c2.7-0.4,5.5-0.3,8.2,0.3c-0.5-0.1-1.1-0.3-1.6-0.4c1.1,0.3,2.2,0.5,3.3,0.8
			c-0.5-0.1-1-0.2-1.4-0.4c5,1.3,9.7,3.7,13.5,7.1c0.9,0.8,1.8,1.7,2.6,2.6c0.8,0.8,0.8,0.8,1.9,0.4c0.8-0.2,1.6-0.5,2.4-0.7
			c3.1-0.9,6.3-1.7,9.5-2.3c6.3-1.2,12.7-1.8,19-1.1c6.3,0.6,12.5,2.2,18.7,3.4c-2.3-19.6-15.1-35.7-31.6-46.3
			c-9.8-6.2-20.8-10.5-31.7-12.3c-6.5-1.1-13.3-1.3-20-0.7c-25,2.3-49.5,16.1-59.9,39.6c-0.8,1.9-1.6,3.8-2.2,5.8
			c-3.7,9.5-4.8,19.4-3.5,29.5c1.1,8.6,4.9,16.6,10.1,23.5c5.3,7.1,11.8,13.5,19.4,18.1c8.8,5.3,17.8,10.3,27.3,14.3
			c4.1,1.8,8.4,3.2,12.6,4.8c3.3,1.2,6.8,2.3,9.7,4.3c5.7,3.8,10.4,10.4,9.1,17.5c-1.2,6.6-7.3,11.7-13.7,13.2
			c-0.7,0.2-1.4,0.3-2.1,0.4c-7.9,0.9-15.9-2.8-21.6-7.9c-1.3-1.1-2.4-2.3-3.5-3.6c-2.4,0.7-4.9,1.4-7.4,2c-4.6,1.1-9.3,2-14,2.4
			c-9.7,1-19.6,0.1-29-2.7c4,19.8,16.4,36.2,33.1,46.6c4.7,2.9,9.7,5.4,15,7.4c23.7,8.6,51.2,6.5,72.3-7.8
			c12.5-8.5,21.7-20.9,26.1-35.4c4.5-14.8,3.9-31.5-4.3-45C205.1,752.9,189.7,743.3,173.7,735.3z"/>
	</g>
</g>
<g>
	<path class="st1" d="M384,769.2c-19.3-5.4-27-14.9-25.6-30.2c0.6-6.9,4-12.7,10.5-17.3c6.6-4.8,14.1-7.1,22.6-7.1
		c18.3,0,32.8,8.9,33.8,27.4h-19.5c-0.8-6.6-6.6-9.9-13.5-9.9c-5.4,0-11.3,2-13.1,5.2c-1.6,2.6-1.8,5.4-0.8,8.3s4.8,5.4,11.3,7.1
		l14.3,3.6c16.1,4,24.2,12.9,24.2,27c0,17.5-15.3,28-36.9,28c-9.3,0-17.5-2.8-24.6-8.1c-7.1-5.6-10.7-12.9-10.9-22.2h18.9
		c1,8.1,7.7,13.3,18.3,13.3c9.5,0,16.5-4.2,16.5-11.1c0-5.4-4.4-8.9-12.9-10.9L384,769.2z"/>
	<path class="st1" d="M519.3,727.9c9.3,8.9,14.1,20.5,14.1,34.8s-4.8,26-14.3,35.2c-9.3,8.9-20.9,13.5-34.4,13.5s-25-4.6-34.4-13.5
		c-9.3-9.1-13.9-20.9-13.9-35.2s4.6-25.8,13.9-34.8c9.3-8.9,20.9-13.3,34.4-13.3C498.4,714.6,510,718.9,519.3,727.9z M504.8,783.5
		c5.4-5.4,8.1-12.3,8.1-20.9c0-16.7-12.3-28-28.2-28c-7.7,0-14.5,2.6-19.9,7.7c-5.4,5.2-8.1,11.9-8.1,20.3c0,8.5,2.8,15.5,8.1,20.9
		c5.4,5.4,12.1,7.9,19.9,7.9C492.7,791.4,499.4,788.8,504.8,783.5z"/>
	<path class="st1" d="M610.7,716.5h20.5v92.7h-20.5v-13.5c-5,9.7-17.1,15.5-27.6,15.5c-22.8,0-36.1-14.7-35.9-40.7v-54h20.5v51.6
		c0,14.9,7.9,23.2,19.3,23.2c13.5,0,23.8-7.7,23.8-25V716.5z"/>
	<path class="st1" d="M667.8,809.3h-20.5v-92.7h20.5v13.9c5-10.1,17.3-15.9,28.4-15.9c22.4,0,35.4,14.5,35.4,40.7v54h-20.5v-51.6
		c0-14.5-7.5-23-19.5-23c-13.5,0-23.8,7.9-23.8,24.8V809.3z"/>
	<path class="st1" d="M822.9,809.3v-13.5c-5.6,9.7-18.1,15.5-31.4,15.5c-12.9,0-23.8-4.4-32.8-13.3c-8.9-8.9-13.5-20.7-13.5-35
		c0-14.5,4.4-26,13.3-35c8.9-8.9,20.1-13.5,33-13.5c13.5,0,25.8,5.6,31.4,15.3v-63.8h20.3v143.2H822.9z M814,742.2
		c-5.8-5.2-12.3-7.7-19.9-7.7c-15.9,0-27.8,11.5-27.8,28.2c0,8.5,2.6,15.5,7.9,20.9c5.4,5.4,12.1,7.9,19.9,7.9
		c15.9,0,28.4-11.3,28.4-28.8C822.6,754.1,819.8,747.1,814,742.2z"/>
	<path class="st1" d="M942.8,759.4v49.8h-20.5v-52c-0.2-14.1-7.7-22.6-18.9-22.6c-13.3,0-23.4,7.9-23.4,24.8v49.8h-20.5v-92.7h20.5
		v13.9c2.8-5.8,7-9.7,12.7-12.1c5.8-2.6,11.3-3.8,16.5-3.8c14.1,0,23.8,6.2,29.2,18.5c6.8-12.3,17.1-18.5,31.2-18.5
		c22.8,0,35.7,14.9,35.7,41.3v53.4h-20.5v-51.6c0-14.3-7.7-23-19.7-23C951.8,734.6,942.8,744.5,942.8,759.4z"/>
	<path class="st1" d="M1097.2,809.3V796c-5.8,9.5-19.1,15.3-31.2,15.3c-12.9,0-24-4.6-33.4-13.5c-9.1-8.9-13.7-20.7-13.7-35
		s4.6-25.8,13.7-34.8c9.3-8.9,20.5-13.5,33.4-13.5c12.1,0,25,5.4,31.2,15.1v-13.1h20.3v92.7H1097.2z M1088.2,742.2
		c-5.8-5.2-12.3-7.7-19.9-7.7c-7.9,0-14.7,2.6-20.3,7.9c-5.4,5.2-8.1,11.9-8.1,20.3c0,8.3,2.8,15.3,8.1,20.7
		c5.6,5.4,12.3,8.1,20.3,8.1c15.9,0,28.6-11.3,28.6-28.8C1097,754.1,1094,747.1,1088.2,742.2z"/>
	<path class="st1" d="M1158.4,809.3h-20.5v-92.7h20.5v21.2c4.6-15.5,12.9-23.2,25.4-23.2c7.3,0,12.9,1.2,16.5,3.6l-3.4,18.9
		c-4.2-2.2-8.7-3.2-13.7-3.2c-16.7,0-24.8,16.1-24.8,42.1V809.3z"/>
	<path class="st1" d="M1272.9,809.3l-39.5-43.1v43.1h-20.3V666.1h20.3v81l29.4-30.6h27.4l-39.5,40.3l48.5,52.4H1272.9z"/>
	<path class="st1" d="M1392,770.2h-73.7c1.8,14.3,13.3,23.2,28.4,23.2c10.5,0,20.5-4.8,25.2-13.3l16.7,7.3
		c-7.9,15.7-24.4,23.8-42.9,23.8c-13.5,0-24.8-4.6-34-13.5c-9.1-8.9-13.7-20.7-13.7-35.2c0-14.5,4.6-26,13.7-34.8
		c9.1-8.9,20.5-13.3,34-13.3s24.6,4.4,33.4,13.3c8.7,8.7,13.1,20.3,13.1,34.8C1392.2,766.4,1392.2,768.8,1392,770.2z M1372.1,755.3
		c-1.8-14.3-12.3-22.8-26.4-22.8c-14.5,0-25.6,8.7-27.4,22.8H1372.1z"/>
	<path class="st1" d="M1430.2,809.3h-20.5v-92.7h20.5v21.2c4.6-15.5,12.9-23.2,25.4-23.2c7.3,0,12.9,1.2,16.5,3.6l-3.4,18.9
		c-4.2-2.2-8.7-3.2-13.7-3.2c-16.7,0-24.8,16.1-24.8,42.1V809.3z"/>
</g>
</svg>
